G75*
%MOIN*%
%OFA0B0*%
%FSLAX25Y25*%
%IPPOS*%
%LPD*%
%AMOC8*
5,1,8,0,0,1.08239X$1,22.5*
%
%ADD10R,0.02200X0.05000*%
%ADD11R,0.05000X0.02200*%
%ADD12R,0.05315X0.01575*%
%ADD13R,0.06299X0.05512*%
%ADD14R,0.07480X0.07480*%
%ADD15C,0.07087*%
%ADD16R,0.03937X0.04331*%
%ADD17R,0.04331X0.03937*%
%ADD18C,0.07400*%
%ADD19R,0.07400X0.07400*%
%ADD20R,0.13780X0.04724*%
%ADD21OC8,0.07400*%
%ADD22OC8,0.05000*%
%ADD23C,0.05000*%
%ADD24C,0.03369*%
%ADD25C,0.01600*%
%ADD26C,0.00600*%
%ADD27C,0.01000*%
%ADD28OC8,0.03369*%
%ADD29OC8,0.04156*%
%ADD30C,0.03762*%
%ADD31C,0.03200*%
%ADD32C,0.05000*%
%ADD33C,0.05315*%
%ADD34C,0.02400*%
%ADD35C,0.01200*%
%ADD36C,0.04000*%
%ADD37C,0.04724*%
%ADD38C,0.02700*%
D10*
X0075776Y0069900D03*
X0078926Y0069900D03*
X0082076Y0069900D03*
X0085225Y0069900D03*
X0088375Y0069900D03*
X0091524Y0069900D03*
X0094674Y0069900D03*
X0097824Y0069900D03*
X0097824Y0103700D03*
X0094674Y0103700D03*
X0091524Y0103700D03*
X0088375Y0103700D03*
X0085225Y0103700D03*
X0082076Y0103700D03*
X0078926Y0103700D03*
X0075776Y0103700D03*
D11*
X0069900Y0097824D03*
X0069900Y0094674D03*
X0069900Y0091524D03*
X0069900Y0088375D03*
X0069900Y0085225D03*
X0069900Y0082076D03*
X0069900Y0078926D03*
X0069900Y0075776D03*
X0103700Y0075776D03*
X0103700Y0078926D03*
X0103700Y0082076D03*
X0103700Y0085225D03*
X0103700Y0088375D03*
X0103700Y0091524D03*
X0103700Y0094674D03*
X0103700Y0097824D03*
D12*
X0022831Y0081918D03*
X0022831Y0079359D03*
X0022831Y0076800D03*
X0022831Y0074241D03*
X0022831Y0071682D03*
D13*
X0021946Y0064202D03*
X0021946Y0089398D03*
X0059300Y0101288D03*
X0059300Y0112312D03*
D14*
X0012300Y0081524D03*
X0012300Y0072076D03*
D15*
X0012300Y0063808D03*
X0012300Y0089792D03*
D16*
X0046800Y0065146D03*
X0046800Y0058454D03*
X0080200Y0050646D03*
X0080200Y0043954D03*
X0105300Y0063454D03*
X0105300Y0070146D03*
X0064300Y0119854D03*
X0064300Y0126546D03*
D17*
X0045146Y0100800D03*
X0038454Y0100800D03*
X0050954Y0091800D03*
X0057646Y0091800D03*
X0044246Y0079900D03*
X0037554Y0079900D03*
X0040146Y0071800D03*
X0033454Y0071800D03*
X0043454Y0049300D03*
X0050146Y0049300D03*
D18*
X0043800Y0033300D03*
X0033800Y0032300D03*
X0023800Y0033300D03*
X0053800Y0032300D03*
X0063800Y0033300D03*
X0073800Y0032300D03*
X0131300Y0051800D03*
X0132300Y0061800D03*
X0131300Y0071800D03*
X0132300Y0081800D03*
X0131300Y0091800D03*
X0132300Y0101800D03*
X0131300Y0111800D03*
D19*
X0132300Y0121800D03*
D20*
X0113227Y0051100D03*
X0091573Y0051100D03*
D21*
X0091800Y0114300D03*
X0091800Y0124300D03*
X0101800Y0124300D03*
X0111800Y0124300D03*
X0111800Y0114300D03*
X0101800Y0114300D03*
D22*
X0079500Y0118300D03*
X0035700Y0119000D03*
X0094400Y0034600D03*
D23*
X0102400Y0034600D03*
X0079500Y0126300D03*
X0035700Y0127000D03*
D24*
X0031800Y0122800D03*
X0031800Y0131800D03*
X0044300Y0131800D03*
X0044300Y0124800D03*
X0034900Y0113700D03*
X0039300Y0094300D03*
X0031700Y0080200D03*
X0031500Y0063200D03*
X0031500Y0059100D03*
X0041800Y0058600D03*
X0042400Y0053900D03*
X0036800Y0046800D03*
X0041100Y0044700D03*
X0052100Y0062000D03*
X0062200Y0050500D03*
X0069100Y0041700D03*
X0068300Y0060300D03*
X0077500Y0063900D03*
X0067200Y0069900D03*
X0056000Y0077600D03*
X0049300Y0079900D03*
X0056300Y0087300D03*
X0063800Y0093300D03*
X0076800Y0088300D03*
X0079300Y0094800D03*
X0084800Y0096300D03*
X0096300Y0091300D03*
X0097800Y0086800D03*
X0097800Y0082300D03*
X0092300Y0076300D03*
X0084800Y0076300D03*
X0098300Y0097300D03*
X0110300Y0090300D03*
X0114300Y0086300D03*
X0110300Y0082800D03*
X0118300Y0082800D03*
X0125300Y0078800D03*
X0118300Y0090300D03*
X0079700Y0113500D03*
D25*
X0016940Y0025067D02*
X0014069Y0026724D01*
X0011724Y0029069D01*
X0010067Y0031940D01*
X0009209Y0035142D01*
X0009100Y0036800D01*
X0009100Y0060017D01*
X0009500Y0059617D01*
X0011317Y0058865D01*
X0013283Y0058865D01*
X0015100Y0059617D01*
X0016491Y0061008D01*
X0017243Y0062825D01*
X0017243Y0064791D01*
X0016491Y0066608D01*
X0016163Y0066935D01*
X0016620Y0066935D01*
X0017440Y0067756D01*
X0017440Y0076396D01*
X0017036Y0076800D01*
X0017440Y0077204D01*
X0017440Y0079400D01*
X0018774Y0079400D01*
X0018774Y0073615D01*
X0018734Y0073575D01*
X0018497Y0073164D01*
X0018374Y0072706D01*
X0018374Y0071682D01*
X0022831Y0071682D01*
X0022831Y0071682D01*
X0018374Y0071682D01*
X0018374Y0070658D01*
X0018497Y0070200D01*
X0018734Y0069789D01*
X0019069Y0069454D01*
X0019479Y0069217D01*
X0019937Y0069094D01*
X0022831Y0069094D01*
X0022831Y0071682D01*
X0022832Y0071682D01*
X0027289Y0071682D01*
X0027289Y0072706D01*
X0027166Y0073164D01*
X0026929Y0073575D01*
X0026889Y0073615D01*
X0026889Y0074600D01*
X0027542Y0074600D01*
X0029888Y0072254D01*
X0029888Y0069252D01*
X0030708Y0068431D01*
X0036199Y0068431D01*
X0036523Y0068756D01*
X0036541Y0068726D01*
X0036876Y0068391D01*
X0037286Y0068154D01*
X0037744Y0068031D01*
X0039962Y0068031D01*
X0039962Y0071616D01*
X0040331Y0071616D01*
X0040331Y0071984D01*
X0044112Y0071984D01*
X0044112Y0074005D01*
X0043989Y0074463D01*
X0043752Y0074874D01*
X0043417Y0075209D01*
X0043007Y0075446D01*
X0042549Y0075568D01*
X0040331Y0075568D01*
X0040331Y0071984D01*
X0039962Y0071984D01*
X0039962Y0075568D01*
X0037744Y0075568D01*
X0037286Y0075446D01*
X0036876Y0075209D01*
X0036541Y0074874D01*
X0036523Y0074844D01*
X0036199Y0075168D01*
X0035933Y0075168D01*
X0037296Y0076531D01*
X0040299Y0076531D01*
X0040900Y0077133D01*
X0041501Y0076531D01*
X0046992Y0076531D01*
X0047689Y0077229D01*
X0048686Y0076816D01*
X0049913Y0076816D01*
X0051047Y0077285D01*
X0051915Y0078153D01*
X0052384Y0079286D01*
X0052384Y0080513D01*
X0051915Y0081647D01*
X0051047Y0082515D01*
X0049913Y0082984D01*
X0048686Y0082984D01*
X0047689Y0082571D01*
X0046992Y0083268D01*
X0041501Y0083268D01*
X0040900Y0082667D01*
X0040299Y0083268D01*
X0034808Y0083268D01*
X0033988Y0082448D01*
X0033988Y0082274D01*
X0033447Y0082815D01*
X0032313Y0083284D01*
X0031200Y0083284D01*
X0031200Y0103513D01*
X0048700Y0121013D01*
X0048700Y0130600D01*
X0115889Y0130600D01*
X0117100Y0129389D01*
X0117100Y0122711D01*
X0116900Y0122511D01*
X0116900Y0126412D01*
X0113912Y0129400D01*
X0109688Y0129400D01*
X0106800Y0126512D01*
X0103912Y0129400D01*
X0099688Y0129400D01*
X0096800Y0126512D01*
X0093912Y0129400D01*
X0089688Y0129400D01*
X0086700Y0126412D01*
X0086700Y0122188D01*
X0086992Y0121896D01*
X0083800Y0118704D01*
X0083800Y0120081D01*
X0081281Y0122600D01*
X0080759Y0122600D01*
X0081709Y0122994D01*
X0082806Y0124091D01*
X0083400Y0125524D01*
X0083400Y0127076D01*
X0082806Y0128509D01*
X0081709Y0129606D01*
X0080276Y0130200D01*
X0078724Y0130200D01*
X0077291Y0129606D01*
X0076194Y0128509D01*
X0075600Y0127076D01*
X0075600Y0125524D01*
X0076194Y0124091D01*
X0077291Y0122994D01*
X0078241Y0122600D01*
X0077719Y0122600D01*
X0075200Y0120081D01*
X0075200Y0118300D01*
X0079500Y0118300D01*
X0079500Y0118300D01*
X0075200Y0118300D01*
X0075200Y0116519D01*
X0076906Y0114813D01*
X0076616Y0114113D01*
X0076616Y0112886D01*
X0077085Y0111753D01*
X0077953Y0110885D01*
X0079086Y0110416D01*
X0080313Y0110416D01*
X0081447Y0110885D01*
X0082315Y0111753D01*
X0082780Y0112876D01*
X0086300Y0116396D01*
X0086300Y0114500D01*
X0091600Y0114500D01*
X0091600Y0114100D01*
X0092000Y0114100D01*
X0092000Y0108800D01*
X0092623Y0108800D01*
X0092470Y0108647D01*
X0092074Y0107691D01*
X0092074Y0107600D01*
X0087471Y0107600D01*
X0087430Y0107640D01*
X0087020Y0107877D01*
X0086562Y0108000D01*
X0085225Y0108000D01*
X0083888Y0108000D01*
X0083430Y0107877D01*
X0083020Y0107640D01*
X0082980Y0107600D01*
X0074096Y0107600D01*
X0073276Y0106780D01*
X0073276Y0100620D01*
X0074096Y0099800D01*
X0082980Y0099800D01*
X0083020Y0099760D01*
X0083430Y0099523D01*
X0083888Y0099400D01*
X0085225Y0099400D01*
X0085225Y0103700D01*
X0085225Y0103700D01*
X0085225Y0108000D01*
X0085225Y0103700D01*
X0085225Y0103700D01*
X0085225Y0099400D01*
X0086562Y0099400D01*
X0087020Y0099523D01*
X0087430Y0099760D01*
X0087471Y0099800D01*
X0096438Y0099800D01*
X0095685Y0099047D01*
X0095216Y0097913D01*
X0095216Y0096686D01*
X0095685Y0095553D01*
X0096553Y0094685D01*
X0097400Y0094334D01*
X0097400Y0089884D01*
X0097186Y0089884D01*
X0096053Y0089415D01*
X0095185Y0088547D01*
X0094716Y0087413D01*
X0094716Y0086186D01*
X0095185Y0085053D01*
X0096053Y0084185D01*
X0097186Y0083716D01*
X0098413Y0083716D01*
X0099547Y0084185D01*
X0099800Y0084438D01*
X0099800Y0074096D01*
X0100620Y0073276D01*
X0101810Y0073276D01*
X0101654Y0073007D01*
X0101531Y0072549D01*
X0101531Y0070331D01*
X0105116Y0070331D01*
X0105116Y0069962D01*
X0101531Y0069962D01*
X0101531Y0069869D01*
X0100324Y0071077D01*
X0100324Y0072980D01*
X0099504Y0073800D01*
X0094162Y0073800D01*
X0094915Y0074553D01*
X0095384Y0075686D01*
X0095384Y0076913D01*
X0094915Y0078047D01*
X0094047Y0078915D01*
X0092913Y0079384D01*
X0091686Y0079384D01*
X0090553Y0078915D01*
X0089685Y0078047D01*
X0089216Y0076913D01*
X0089216Y0076745D01*
X0088924Y0076042D01*
X0088924Y0074200D01*
X0088375Y0074200D01*
X0088375Y0069900D01*
X0088375Y0069900D01*
X0088375Y0065600D01*
X0088900Y0065600D01*
X0088900Y0065440D01*
X0088018Y0064559D01*
X0087519Y0063353D01*
X0087519Y0062047D01*
X0088018Y0060841D01*
X0088941Y0059918D01*
X0090147Y0059419D01*
X0091453Y0059419D01*
X0092074Y0059676D01*
X0092074Y0054862D01*
X0084104Y0054862D01*
X0083283Y0054042D01*
X0083283Y0053700D01*
X0083260Y0053700D01*
X0082748Y0054212D01*
X0077652Y0054212D01*
X0076831Y0053392D01*
X0076831Y0047901D01*
X0077156Y0047577D01*
X0077126Y0047559D01*
X0076791Y0047224D01*
X0076554Y0046814D01*
X0076431Y0046356D01*
X0076431Y0044138D01*
X0080016Y0044138D01*
X0080016Y0043769D01*
X0080384Y0043769D01*
X0080384Y0039988D01*
X0082405Y0039988D01*
X0082863Y0040111D01*
X0083274Y0040348D01*
X0083609Y0040683D01*
X0083846Y0041093D01*
X0083968Y0041551D01*
X0083968Y0043769D01*
X0080384Y0043769D01*
X0080384Y0044138D01*
X0083968Y0044138D01*
X0083968Y0046356D01*
X0083846Y0046814D01*
X0083609Y0047224D01*
X0083274Y0047559D01*
X0083244Y0047577D01*
X0083554Y0047887D01*
X0084104Y0047338D01*
X0099043Y0047338D01*
X0099863Y0048158D01*
X0099863Y0054042D01*
X0099043Y0054862D01*
X0097274Y0054862D01*
X0097274Y0066000D01*
X0098047Y0066000D01*
X0101931Y0062115D01*
X0101931Y0060708D01*
X0102752Y0059888D01*
X0105188Y0059888D01*
X0110214Y0054862D01*
X0105757Y0054862D01*
X0104937Y0054042D01*
X0104937Y0048158D01*
X0105757Y0047338D01*
X0120696Y0047338D01*
X0121517Y0048158D01*
X0121517Y0054042D01*
X0120696Y0054862D01*
X0117488Y0054862D01*
X0117431Y0055000D01*
X0117340Y0055091D01*
X0117279Y0055204D01*
X0116977Y0055454D01*
X0108668Y0063762D01*
X0108668Y0066199D01*
X0108344Y0066523D01*
X0108374Y0066541D01*
X0108709Y0066876D01*
X0108946Y0067286D01*
X0109068Y0067744D01*
X0109068Y0069962D01*
X0105484Y0069962D01*
X0105484Y0070331D01*
X0109068Y0070331D01*
X0109068Y0072549D01*
X0108946Y0073007D01*
X0108709Y0073417D01*
X0108374Y0073752D01*
X0107963Y0073989D01*
X0107592Y0074089D01*
X0107600Y0074096D01*
X0107600Y0093996D01*
X0108904Y0095300D01*
X0109900Y0096296D01*
X0109900Y0104411D01*
X0110531Y0105042D01*
X0110950Y0106053D01*
X0110950Y0107147D01*
X0110531Y0108158D01*
X0109758Y0108931D01*
X0108747Y0109350D01*
X0108700Y0109350D01*
X0108700Y0110188D01*
X0109688Y0109200D01*
X0113912Y0109200D01*
X0114254Y0109542D01*
X0120300Y0103496D01*
X0120300Y0080023D01*
X0119763Y0080000D01*
X0116596Y0080000D01*
X0115600Y0079004D01*
X0115096Y0078500D01*
X0115096Y0078500D01*
X0114100Y0077504D01*
X0114100Y0067096D01*
X0115096Y0066100D01*
X0121596Y0059600D01*
X0125544Y0059600D01*
X0128607Y0056205D01*
X0128411Y0056124D01*
X0126976Y0054689D01*
X0126200Y0052814D01*
X0126200Y0050786D01*
X0126976Y0048911D01*
X0128411Y0047476D01*
X0130286Y0046700D01*
X0132314Y0046700D01*
X0134189Y0047476D01*
X0135624Y0048911D01*
X0136400Y0050786D01*
X0136400Y0052814D01*
X0135624Y0054689D01*
X0134189Y0056124D01*
X0133478Y0056418D01*
X0133588Y0056435D01*
X0134411Y0056703D01*
X0135183Y0057096D01*
X0135883Y0057605D01*
X0136495Y0058217D01*
X0137004Y0058917D01*
X0137397Y0059689D01*
X0137665Y0060512D01*
X0137800Y0061367D01*
X0137800Y0061600D01*
X0132500Y0061600D01*
X0132500Y0062000D01*
X0137800Y0062000D01*
X0137800Y0062233D01*
X0137665Y0063088D01*
X0137397Y0063911D01*
X0137004Y0064683D01*
X0136495Y0065383D01*
X0135883Y0065995D01*
X0135183Y0066504D01*
X0134411Y0066897D01*
X0133588Y0067165D01*
X0133478Y0067182D01*
X0134189Y0067476D01*
X0135624Y0068911D01*
X0136400Y0070786D01*
X0136400Y0072814D01*
X0135624Y0074689D01*
X0134189Y0076124D01*
X0132797Y0076700D01*
X0133314Y0076700D01*
X0135189Y0077476D01*
X0136624Y0078911D01*
X0137400Y0080786D01*
X0137400Y0082814D01*
X0136624Y0084689D01*
X0135189Y0086124D01*
X0133314Y0086900D01*
X0132797Y0086900D01*
X0134189Y0087476D01*
X0135624Y0088911D01*
X0136400Y0090786D01*
X0136400Y0092814D01*
X0135624Y0094689D01*
X0134189Y0096124D01*
X0132797Y0096700D01*
X0133314Y0096700D01*
X0135189Y0097476D01*
X0136624Y0098911D01*
X0137400Y0100786D01*
X0137400Y0102814D01*
X0136624Y0104689D01*
X0135189Y0106124D01*
X0133314Y0106900D01*
X0132797Y0106900D01*
X0134189Y0107476D01*
X0135624Y0108911D01*
X0136400Y0110786D01*
X0136400Y0112814D01*
X0135624Y0114689D01*
X0134189Y0116124D01*
X0132797Y0116700D01*
X0136580Y0116700D01*
X0137400Y0117520D01*
X0137400Y0126080D01*
X0136580Y0126900D01*
X0128020Y0126900D01*
X0127200Y0126080D01*
X0127200Y0117520D01*
X0128020Y0116700D01*
X0129803Y0116700D01*
X0128411Y0116124D01*
X0126976Y0114689D01*
X0126200Y0112814D01*
X0126200Y0110786D01*
X0126976Y0108911D01*
X0128411Y0107476D01*
X0130286Y0106700D01*
X0130803Y0106700D01*
X0129411Y0106124D01*
X0127976Y0104689D01*
X0127200Y0102814D01*
X0127200Y0100786D01*
X0127976Y0098911D01*
X0129411Y0097476D01*
X0130803Y0096900D01*
X0130286Y0096900D01*
X0128411Y0096124D01*
X0126976Y0094689D01*
X0126200Y0092814D01*
X0126200Y0090786D01*
X0126976Y0088911D01*
X0128411Y0087476D01*
X0130286Y0086700D01*
X0130803Y0086700D01*
X0129411Y0086124D01*
X0127976Y0084689D01*
X0127200Y0082814D01*
X0127200Y0081262D01*
X0127047Y0081415D01*
X0125913Y0081884D01*
X0124686Y0081884D01*
X0123700Y0081476D01*
X0123700Y0104904D01*
X0122704Y0105900D01*
X0116658Y0111946D01*
X0116900Y0112188D01*
X0116900Y0116289D01*
X0120211Y0119600D01*
X0121500Y0120889D01*
X0121500Y0131211D01*
X0119510Y0133201D01*
X0126721Y0133201D01*
X0128379Y0133092D01*
X0131581Y0132234D01*
X0134453Y0130576D01*
X0136797Y0128232D01*
X0138455Y0125361D01*
X0139313Y0122158D01*
X0139421Y0120501D01*
X0139421Y0036800D01*
X0139313Y0035142D01*
X0138455Y0031940D01*
X0136797Y0029069D01*
X0134453Y0026724D01*
X0131581Y0025067D01*
X0128379Y0024209D01*
X0126721Y0024100D01*
X0021800Y0024100D01*
X0020142Y0024209D01*
X0016940Y0025067D01*
X0017200Y0024997D02*
X0131321Y0024997D01*
X0134229Y0026596D02*
X0014292Y0026596D01*
X0012599Y0028194D02*
X0030693Y0028194D01*
X0030911Y0027976D02*
X0029476Y0029411D01*
X0028700Y0031286D01*
X0028700Y0031803D01*
X0028124Y0030411D01*
X0026689Y0028976D01*
X0024814Y0028200D01*
X0022786Y0028200D01*
X0020911Y0028976D01*
X0019476Y0030411D01*
X0018700Y0032286D01*
X0018700Y0034314D01*
X0019476Y0036189D01*
X0020911Y0037624D01*
X0022780Y0038398D01*
X0020129Y0038398D01*
X0017040Y0039677D01*
X0014677Y0042040D01*
X0013398Y0045129D01*
X0013398Y0048471D01*
X0014677Y0051560D01*
X0017040Y0053923D01*
X0020129Y0055202D01*
X0023471Y0055202D01*
X0026560Y0053923D01*
X0028923Y0051560D01*
X0030202Y0048471D01*
X0030202Y0045129D01*
X0028923Y0042040D01*
X0026560Y0039677D01*
X0023477Y0038400D01*
X0024814Y0038400D01*
X0026689Y0037624D01*
X0028124Y0036189D01*
X0028900Y0034314D01*
X0028900Y0033797D01*
X0029476Y0035189D01*
X0030911Y0036624D01*
X0032786Y0037400D01*
X0034814Y0037400D01*
X0035803Y0036990D01*
X0037800Y0038987D01*
X0038913Y0040100D01*
X0064813Y0040100D01*
X0066016Y0041303D01*
X0066016Y0042313D01*
X0066485Y0043447D01*
X0067353Y0044315D01*
X0068486Y0044784D01*
X0069713Y0044784D01*
X0070847Y0044315D01*
X0071715Y0043447D01*
X0072184Y0042313D01*
X0072184Y0041086D01*
X0071715Y0039953D01*
X0070847Y0039085D01*
X0069713Y0038616D01*
X0068703Y0038616D01*
X0067200Y0037113D01*
X0068124Y0036189D01*
X0068790Y0034581D01*
X0069096Y0035183D01*
X0069605Y0035883D01*
X0070217Y0036495D01*
X0070917Y0037004D01*
X0071689Y0037397D01*
X0072512Y0037665D01*
X0073367Y0037800D01*
X0073600Y0037800D01*
X0073600Y0032500D01*
X0074000Y0032500D01*
X0074000Y0037800D01*
X0074233Y0037800D01*
X0075088Y0037665D01*
X0075911Y0037397D01*
X0076683Y0037004D01*
X0077383Y0036495D01*
X0077995Y0035883D01*
X0078504Y0035183D01*
X0078897Y0034411D01*
X0079165Y0033588D01*
X0079300Y0032733D01*
X0079300Y0032500D01*
X0074000Y0032500D01*
X0074000Y0032100D01*
X0079300Y0032100D01*
X0079300Y0031867D01*
X0079165Y0031012D01*
X0078897Y0030189D01*
X0078504Y0029417D01*
X0077995Y0028717D01*
X0077383Y0028105D01*
X0076683Y0027596D01*
X0075911Y0027203D01*
X0075088Y0026935D01*
X0074233Y0026800D01*
X0074000Y0026800D01*
X0074000Y0032100D01*
X0073600Y0032100D01*
X0073600Y0026800D01*
X0073367Y0026800D01*
X0072512Y0026935D01*
X0071689Y0027203D01*
X0070917Y0027596D01*
X0070217Y0028105D01*
X0069605Y0028717D01*
X0069096Y0029417D01*
X0068703Y0030189D01*
X0068435Y0031012D01*
X0068418Y0031122D01*
X0068124Y0030411D01*
X0066689Y0028976D01*
X0064814Y0028200D01*
X0062786Y0028200D01*
X0060911Y0028976D01*
X0059476Y0030411D01*
X0058900Y0031803D01*
X0058900Y0031286D01*
X0058124Y0029411D01*
X0056689Y0027976D01*
X0054814Y0027200D01*
X0052786Y0027200D01*
X0050911Y0027976D01*
X0049476Y0029411D01*
X0048700Y0031286D01*
X0048700Y0031803D01*
X0048124Y0030411D01*
X0046689Y0028976D01*
X0044814Y0028200D01*
X0042786Y0028200D01*
X0040911Y0028976D01*
X0039476Y0030411D01*
X0038900Y0031803D01*
X0038900Y0031286D01*
X0038124Y0029411D01*
X0036689Y0027976D01*
X0034814Y0027200D01*
X0032786Y0027200D01*
X0030911Y0027976D01*
X0029318Y0029793D02*
X0027505Y0029793D01*
X0028529Y0031391D02*
X0028700Y0031391D01*
X0028787Y0034588D02*
X0029228Y0034588D01*
X0028125Y0036187D02*
X0030474Y0036187D01*
X0026299Y0037785D02*
X0036598Y0037785D01*
X0038197Y0039384D02*
X0025852Y0039384D01*
X0027865Y0040982D02*
X0065695Y0040982D01*
X0066126Y0042581D02*
X0061268Y0042581D01*
X0061700Y0043013D02*
X0060587Y0041900D01*
X0042400Y0041900D01*
X0041713Y0041616D01*
X0040486Y0041616D01*
X0039800Y0041900D01*
X0034613Y0041900D01*
X0033013Y0043500D01*
X0031900Y0044613D01*
X0031900Y0056013D01*
X0031897Y0056016D01*
X0030886Y0056016D01*
X0029753Y0056485D01*
X0028885Y0057353D01*
X0028416Y0058486D01*
X0028416Y0059713D01*
X0028885Y0060847D01*
X0029753Y0061715D01*
X0030886Y0062184D01*
X0032113Y0062184D01*
X0033247Y0061715D01*
X0034115Y0060847D01*
X0034584Y0059713D01*
X0034584Y0058703D01*
X0035700Y0057587D01*
X0035700Y0049683D01*
X0036186Y0049884D01*
X0037197Y0049884D01*
X0037400Y0050087D01*
X0038513Y0051200D01*
X0039888Y0051200D01*
X0039888Y0051848D01*
X0039989Y0051949D01*
X0039785Y0052153D01*
X0039316Y0053286D01*
X0039316Y0054513D01*
X0039785Y0055647D01*
X0040103Y0055965D01*
X0040053Y0055985D01*
X0039185Y0056853D01*
X0038716Y0057986D01*
X0038716Y0059213D01*
X0039185Y0060347D01*
X0040053Y0061215D01*
X0041186Y0061684D01*
X0042413Y0061684D01*
X0043477Y0061244D01*
X0043756Y0061523D01*
X0043726Y0061541D01*
X0043391Y0061876D01*
X0043154Y0062286D01*
X0043031Y0062744D01*
X0043031Y0064962D01*
X0046616Y0064962D01*
X0046616Y0065331D01*
X0046616Y0069112D01*
X0044595Y0069112D01*
X0044137Y0068989D01*
X0043788Y0068788D01*
X0043989Y0069137D01*
X0044112Y0069595D01*
X0044112Y0071616D01*
X0040331Y0071616D01*
X0040331Y0068031D01*
X0042549Y0068031D01*
X0043007Y0068154D01*
X0043356Y0068356D01*
X0043154Y0068007D01*
X0043031Y0067549D01*
X0043031Y0065331D01*
X0046616Y0065331D01*
X0046984Y0065331D01*
X0046984Y0069112D01*
X0049005Y0069112D01*
X0049463Y0068989D01*
X0049874Y0068752D01*
X0050209Y0068417D01*
X0050446Y0068007D01*
X0050568Y0067549D01*
X0050568Y0065331D01*
X0046984Y0065331D01*
X0046984Y0064962D01*
X0050568Y0064962D01*
X0050568Y0064704D01*
X0051486Y0065084D01*
X0052713Y0065084D01*
X0053847Y0064615D01*
X0054715Y0063747D01*
X0055184Y0062613D01*
X0055184Y0061386D01*
X0054715Y0060253D01*
X0053847Y0059385D01*
X0052713Y0058916D01*
X0052127Y0058916D01*
X0050754Y0057542D01*
X0050754Y0057542D01*
X0050168Y0056957D01*
X0050168Y0055708D01*
X0049348Y0054888D01*
X0045329Y0054888D01*
X0045484Y0054513D01*
X0045484Y0053286D01*
X0045228Y0052668D01*
X0046199Y0052668D01*
X0046800Y0052067D01*
X0047401Y0052668D01*
X0050828Y0052668D01*
X0057400Y0059241D01*
X0057400Y0082587D01*
X0058513Y0083700D01*
X0058513Y0083700D01*
X0060825Y0086012D01*
X0060825Y0086012D01*
X0061288Y0086475D01*
X0060285Y0086475D01*
X0059384Y0087375D01*
X0059384Y0086686D01*
X0058915Y0085553D01*
X0058047Y0084685D01*
X0056913Y0084216D01*
X0055686Y0084216D01*
X0054553Y0084685D01*
X0053685Y0085553D01*
X0053216Y0086686D01*
X0053216Y0086709D01*
X0051494Y0088431D01*
X0048208Y0088431D01*
X0047388Y0089252D01*
X0047388Y0094348D01*
X0048208Y0095168D01*
X0053699Y0095168D01*
X0054300Y0094567D01*
X0054901Y0095168D01*
X0060392Y0095168D01*
X0060988Y0094572D01*
X0061185Y0095047D01*
X0062053Y0095915D01*
X0063186Y0096384D01*
X0064413Y0096384D01*
X0065547Y0095915D01*
X0066000Y0095462D01*
X0066000Y0099504D01*
X0066820Y0100324D01*
X0072980Y0100324D01*
X0073800Y0099504D01*
X0073800Y0093424D01*
X0080737Y0093424D01*
X0082092Y0094779D01*
X0081716Y0095686D01*
X0081716Y0096913D01*
X0082185Y0098047D01*
X0083053Y0098915D01*
X0084186Y0099384D01*
X0085413Y0099384D01*
X0086547Y0098915D01*
X0087415Y0098047D01*
X0087884Y0096913D01*
X0087884Y0095686D01*
X0087415Y0094553D01*
X0086547Y0093685D01*
X0086249Y0093562D01*
X0083424Y0090737D01*
X0082311Y0089624D01*
X0079590Y0089624D01*
X0079884Y0088913D01*
X0079884Y0087686D01*
X0079415Y0086553D01*
X0078547Y0085685D01*
X0077413Y0085216D01*
X0076186Y0085216D01*
X0075053Y0085685D01*
X0074438Y0086300D01*
X0073800Y0086300D01*
X0073800Y0074096D01*
X0072980Y0073276D01*
X0066820Y0073276D01*
X0066200Y0073896D01*
X0066200Y0056587D01*
X0066587Y0056200D01*
X0067700Y0055087D01*
X0067700Y0049013D01*
X0061700Y0043013D01*
X0062866Y0044179D02*
X0067217Y0044179D01*
X0064465Y0045778D02*
X0076431Y0045778D01*
X0076431Y0044179D02*
X0070983Y0044179D01*
X0072074Y0042581D02*
X0076431Y0042581D01*
X0076431Y0041551D02*
X0076554Y0041093D01*
X0076791Y0040683D01*
X0077126Y0040348D01*
X0077537Y0040111D01*
X0077995Y0039988D01*
X0080016Y0039988D01*
X0080016Y0043769D01*
X0076431Y0043769D01*
X0076431Y0041551D01*
X0076618Y0040982D02*
X0072141Y0040982D01*
X0071145Y0039384D02*
X0118776Y0039384D01*
X0118398Y0038471D02*
X0118398Y0035129D01*
X0119677Y0032040D01*
X0122040Y0029677D01*
X0125129Y0028398D01*
X0128471Y0028398D01*
X0131560Y0029677D01*
X0133923Y0032040D01*
X0135202Y0035129D01*
X0135202Y0038471D01*
X0133923Y0041560D01*
X0131560Y0043923D01*
X0128471Y0045202D01*
X0125129Y0045202D01*
X0122040Y0043923D01*
X0119677Y0041560D01*
X0118398Y0038471D01*
X0118398Y0037785D02*
X0104730Y0037785D01*
X0104609Y0037906D02*
X0103176Y0038500D01*
X0101624Y0038500D01*
X0100191Y0037906D01*
X0099094Y0036809D01*
X0098700Y0035859D01*
X0098700Y0036381D01*
X0096181Y0038900D01*
X0094400Y0038900D01*
X0094400Y0034600D01*
X0094400Y0034600D01*
X0094400Y0030300D01*
X0096181Y0030300D01*
X0098700Y0032819D01*
X0098700Y0033341D01*
X0099094Y0032391D01*
X0100191Y0031294D01*
X0101624Y0030700D01*
X0103176Y0030700D01*
X0104609Y0031294D01*
X0105706Y0032391D01*
X0106300Y0033824D01*
X0106300Y0035376D01*
X0105706Y0036809D01*
X0104609Y0037906D01*
X0105964Y0036187D02*
X0118398Y0036187D01*
X0118622Y0034588D02*
X0106300Y0034588D01*
X0105954Y0032990D02*
X0119284Y0032990D01*
X0120326Y0031391D02*
X0104706Y0031391D01*
X0100093Y0031391D02*
X0097272Y0031391D01*
X0098700Y0032990D02*
X0098846Y0032990D01*
X0098836Y0036187D02*
X0098700Y0036187D01*
X0100070Y0037785D02*
X0097296Y0037785D01*
X0094400Y0037785D02*
X0094400Y0037785D01*
X0094400Y0038900D02*
X0092619Y0038900D01*
X0090100Y0036381D01*
X0090100Y0034600D01*
X0094400Y0034600D01*
X0094400Y0034600D01*
X0094400Y0034600D01*
X0094400Y0038900D01*
X0094400Y0036187D02*
X0094400Y0036187D01*
X0094400Y0034600D02*
X0090100Y0034600D01*
X0090100Y0032819D01*
X0092619Y0030300D01*
X0094400Y0030300D01*
X0094400Y0034600D01*
X0094400Y0034588D02*
X0094400Y0034588D01*
X0094400Y0032990D02*
X0094400Y0032990D01*
X0094400Y0031391D02*
X0094400Y0031391D01*
X0091528Y0031391D02*
X0079225Y0031391D01*
X0079259Y0032990D02*
X0090100Y0032990D01*
X0090100Y0034588D02*
X0078807Y0034588D01*
X0077692Y0036187D02*
X0090100Y0036187D01*
X0091504Y0037785D02*
X0074327Y0037785D01*
X0074000Y0037785D02*
X0073600Y0037785D01*
X0073273Y0037785D02*
X0067872Y0037785D01*
X0068125Y0036187D02*
X0069908Y0036187D01*
X0068793Y0034588D02*
X0068787Y0034588D01*
X0068905Y0029793D02*
X0067505Y0029793D01*
X0070128Y0028194D02*
X0056907Y0028194D01*
X0058282Y0029793D02*
X0060095Y0029793D01*
X0059070Y0031391D02*
X0058900Y0031391D01*
X0050693Y0028194D02*
X0036907Y0028194D01*
X0038282Y0029793D02*
X0040095Y0029793D01*
X0039070Y0031391D02*
X0038900Y0031391D01*
X0047505Y0029793D02*
X0049318Y0029793D01*
X0048700Y0031391D02*
X0048529Y0031391D01*
X0033932Y0042581D02*
X0029147Y0042581D01*
X0029809Y0044179D02*
X0032334Y0044179D01*
X0031900Y0045778D02*
X0030202Y0045778D01*
X0030202Y0047376D02*
X0031900Y0047376D01*
X0031900Y0048975D02*
X0029994Y0048975D01*
X0029332Y0050573D02*
X0031900Y0050573D01*
X0031900Y0052172D02*
X0028311Y0052172D01*
X0026712Y0053770D02*
X0031900Y0053770D01*
X0031900Y0055369D02*
X0009100Y0055369D01*
X0009100Y0056967D02*
X0029271Y0056967D01*
X0028416Y0058566D02*
X0009100Y0058566D01*
X0009100Y0053770D02*
X0016888Y0053770D01*
X0015289Y0052172D02*
X0009100Y0052172D01*
X0009100Y0050573D02*
X0014268Y0050573D01*
X0013606Y0048975D02*
X0009100Y0048975D01*
X0009100Y0047376D02*
X0013398Y0047376D01*
X0013398Y0045778D02*
X0009100Y0045778D01*
X0009100Y0044179D02*
X0013791Y0044179D01*
X0014453Y0042581D02*
X0009100Y0042581D01*
X0009100Y0040982D02*
X0015735Y0040982D01*
X0017748Y0039384D02*
X0009100Y0039384D01*
X0009100Y0037785D02*
X0021301Y0037785D01*
X0019475Y0036187D02*
X0009140Y0036187D01*
X0009357Y0034588D02*
X0018813Y0034588D01*
X0018700Y0032990D02*
X0009785Y0032990D01*
X0010384Y0031391D02*
X0019070Y0031391D01*
X0020095Y0029793D02*
X0011306Y0029793D01*
X0035700Y0050573D02*
X0037886Y0050573D01*
X0039777Y0052172D02*
X0035700Y0052172D01*
X0035700Y0053770D02*
X0039316Y0053770D01*
X0039670Y0055369D02*
X0035700Y0055369D01*
X0035700Y0056967D02*
X0039138Y0056967D01*
X0038716Y0058566D02*
X0034721Y0058566D01*
X0034398Y0060164D02*
X0039110Y0060164D01*
X0041800Y0058600D02*
X0046546Y0058600D01*
X0046746Y0058400D01*
X0046800Y0058454D02*
X0048554Y0058454D01*
X0052100Y0062000D01*
X0054874Y0063361D02*
X0057400Y0063361D01*
X0057400Y0061763D02*
X0055184Y0061763D01*
X0054626Y0060164D02*
X0057400Y0060164D01*
X0056725Y0058566D02*
X0051777Y0058566D01*
X0050179Y0056967D02*
X0055127Y0056967D01*
X0053528Y0055369D02*
X0049829Y0055369D01*
X0051930Y0053770D02*
X0045484Y0053770D01*
X0046696Y0052172D02*
X0046904Y0052172D01*
X0043504Y0061763D02*
X0033131Y0061763D01*
X0029869Y0061763D02*
X0026495Y0061763D01*
X0026495Y0060866D02*
X0025675Y0060046D01*
X0018216Y0060046D01*
X0017396Y0060866D01*
X0017396Y0067537D01*
X0018216Y0068357D01*
X0025675Y0068357D01*
X0026495Y0067537D01*
X0026495Y0060866D01*
X0025794Y0060164D02*
X0028602Y0060164D01*
X0026495Y0063361D02*
X0043031Y0063361D01*
X0043031Y0064960D02*
X0026495Y0064960D01*
X0026495Y0066558D02*
X0043031Y0066558D01*
X0043011Y0068157D02*
X0043241Y0068157D01*
X0044112Y0069755D02*
X0057400Y0069755D01*
X0057400Y0068157D02*
X0050359Y0068157D01*
X0050568Y0066558D02*
X0057400Y0066558D01*
X0057400Y0064960D02*
X0053014Y0064960D01*
X0051186Y0064960D02*
X0050568Y0064960D01*
X0046984Y0066558D02*
X0046616Y0066558D01*
X0046616Y0068157D02*
X0046984Y0068157D01*
X0044112Y0071354D02*
X0057400Y0071354D01*
X0057400Y0072952D02*
X0044112Y0072952D01*
X0043939Y0074551D02*
X0057400Y0074551D01*
X0057400Y0076149D02*
X0036914Y0076149D01*
X0039962Y0074551D02*
X0040331Y0074551D01*
X0040331Y0072952D02*
X0039962Y0072952D01*
X0039962Y0071354D02*
X0040331Y0071354D01*
X0040331Y0069755D02*
X0039962Y0069755D01*
X0039962Y0068157D02*
X0040331Y0068157D01*
X0037282Y0068157D02*
X0025876Y0068157D01*
X0025726Y0069094D02*
X0026184Y0069217D01*
X0026594Y0069454D01*
X0026929Y0069789D01*
X0027166Y0070200D01*
X0027289Y0070658D01*
X0027289Y0071682D01*
X0022832Y0071682D01*
X0022832Y0071682D01*
X0022832Y0069094D01*
X0025726Y0069094D01*
X0026895Y0069755D02*
X0029888Y0069755D01*
X0029888Y0071354D02*
X0027289Y0071354D01*
X0027223Y0072952D02*
X0029190Y0072952D01*
X0027591Y0074551D02*
X0026889Y0074551D01*
X0028454Y0076800D02*
X0033454Y0071800D01*
X0033454Y0075800D01*
X0037554Y0079900D01*
X0034083Y0082543D02*
X0033718Y0082543D01*
X0031200Y0084142D02*
X0058955Y0084142D01*
X0058992Y0085740D02*
X0060553Y0085740D01*
X0059420Y0087339D02*
X0059384Y0087339D01*
X0057400Y0082543D02*
X0050978Y0082543D01*
X0052206Y0080945D02*
X0057400Y0080945D01*
X0057400Y0079346D02*
X0052384Y0079346D01*
X0051510Y0077748D02*
X0057400Y0077748D01*
X0049300Y0079900D02*
X0044246Y0079900D01*
X0047702Y0088937D02*
X0031200Y0088937D01*
X0031200Y0087339D02*
X0052586Y0087339D01*
X0053608Y0085740D02*
X0031200Y0085740D01*
X0031200Y0090536D02*
X0047388Y0090536D01*
X0047388Y0092134D02*
X0041496Y0092134D01*
X0041915Y0092553D02*
X0042384Y0093686D01*
X0042384Y0094913D01*
X0041915Y0096047D01*
X0041047Y0096915D01*
X0040654Y0097078D01*
X0040654Y0097431D01*
X0041199Y0097431D01*
X0041523Y0097756D01*
X0041541Y0097726D01*
X0041876Y0097391D01*
X0042286Y0097154D01*
X0042744Y0097031D01*
X0044962Y0097031D01*
X0044962Y0100616D01*
X0045331Y0100616D01*
X0045331Y0100984D01*
X0049112Y0100984D01*
X0049112Y0103005D01*
X0048989Y0103463D01*
X0048752Y0103874D01*
X0048417Y0104209D01*
X0048007Y0104446D01*
X0047549Y0104568D01*
X0045331Y0104568D01*
X0045331Y0100984D01*
X0044962Y0100984D01*
X0044962Y0104568D01*
X0042744Y0104568D01*
X0042286Y0104446D01*
X0041876Y0104209D01*
X0041541Y0103874D01*
X0041523Y0103844D01*
X0041199Y0104168D01*
X0035708Y0104168D01*
X0034888Y0103348D01*
X0034888Y0098252D01*
X0035708Y0097431D01*
X0036254Y0097431D01*
X0036254Y0095005D01*
X0036216Y0094913D01*
X0036216Y0093686D01*
X0036685Y0092553D01*
X0037553Y0091685D01*
X0038686Y0091216D01*
X0039913Y0091216D01*
X0041047Y0091685D01*
X0041915Y0092553D01*
X0042384Y0093733D02*
X0047388Y0093733D01*
X0047549Y0097031D02*
X0045331Y0097031D01*
X0045331Y0100616D01*
X0049112Y0100616D01*
X0049112Y0098595D01*
X0048989Y0098137D01*
X0048752Y0097726D01*
X0048417Y0097391D01*
X0048007Y0097154D01*
X0047549Y0097031D01*
X0049094Y0098529D02*
X0054350Y0098529D01*
X0054350Y0098295D02*
X0054473Y0097837D01*
X0054710Y0097427D01*
X0055045Y0097092D01*
X0055456Y0096855D01*
X0055913Y0096732D01*
X0058722Y0096732D01*
X0058722Y0100710D01*
X0059878Y0100710D01*
X0059878Y0096732D01*
X0062687Y0096732D01*
X0063144Y0096855D01*
X0063555Y0097092D01*
X0063890Y0097427D01*
X0064127Y0097837D01*
X0064250Y0098295D01*
X0064250Y0100710D01*
X0059878Y0100710D01*
X0059878Y0101866D01*
X0064250Y0101866D01*
X0064250Y0104281D01*
X0064127Y0104739D01*
X0063890Y0105149D01*
X0063555Y0105484D01*
X0063420Y0105562D01*
X0063597Y0105582D01*
X0063813Y0105478D01*
X0064161Y0105600D01*
X0064437Y0105600D01*
X0064453Y0105616D01*
X0064537Y0105596D01*
X0064714Y0105708D01*
X0064923Y0105731D01*
X0065036Y0105873D01*
X0065216Y0105873D01*
X0065365Y0106021D01*
X0065563Y0106090D01*
X0065641Y0106253D01*
X0065817Y0106293D01*
X0065929Y0106471D01*
X0066107Y0106583D01*
X0066147Y0106759D01*
X0066310Y0106837D01*
X0066379Y0107035D01*
X0066527Y0107184D01*
X0066527Y0107364D01*
X0066669Y0107477D01*
X0066692Y0107686D01*
X0066804Y0107863D01*
X0066784Y0107947D01*
X0066800Y0107963D01*
X0066800Y0108239D01*
X0066922Y0108587D01*
X0066818Y0108803D01*
X0066876Y0109319D01*
X0066800Y0109415D01*
X0066800Y0114207D01*
X0066844Y0114649D01*
X0066945Y0114985D01*
X0067111Y0115295D01*
X0067334Y0115566D01*
X0067605Y0115789D01*
X0067915Y0115954D01*
X0068251Y0116056D01*
X0068539Y0116085D01*
X0068603Y0116032D01*
X0069293Y0116100D01*
X0069302Y0116100D01*
X0069486Y0116001D01*
X0069811Y0116100D01*
X0069987Y0116100D01*
X0070063Y0116176D01*
X0070206Y0116190D01*
X0070358Y0116144D01*
X0070499Y0116219D01*
X0070657Y0116234D01*
X0070758Y0116357D01*
X0070887Y0116426D01*
X0071027Y0116469D01*
X0071186Y0116453D01*
X0071309Y0116554D01*
X0071461Y0116601D01*
X0071536Y0116741D01*
X0071650Y0116834D01*
X0071779Y0116903D01*
X0071937Y0116919D01*
X0072038Y0117042D01*
X0072179Y0117117D01*
X0072225Y0117269D01*
X0072318Y0117382D01*
X0072431Y0117475D01*
X0072583Y0117521D01*
X0072658Y0117662D01*
X0072781Y0117763D01*
X0072797Y0117921D01*
X0072866Y0118050D01*
X0072959Y0118164D01*
X0073099Y0118239D01*
X0073146Y0118391D01*
X0073247Y0118514D01*
X0073231Y0118673D01*
X0073274Y0118813D01*
X0073343Y0118942D01*
X0073466Y0119043D01*
X0073481Y0119201D01*
X0073556Y0119342D01*
X0073510Y0119494D01*
X0073524Y0119637D01*
X0073600Y0119713D01*
X0073600Y0119889D01*
X0073615Y0119939D01*
X0073668Y0120003D01*
X0073660Y0120086D01*
X0073699Y0120214D01*
X0073636Y0120332D01*
X0073614Y0120550D01*
X0073636Y0120768D01*
X0073699Y0120886D01*
X0073660Y0121014D01*
X0073668Y0121097D01*
X0073615Y0121161D01*
X0073600Y0121211D01*
X0073600Y0121387D01*
X0073524Y0121463D01*
X0073510Y0121606D01*
X0073556Y0121758D01*
X0073481Y0121899D01*
X0073466Y0122057D01*
X0073343Y0122158D01*
X0073274Y0122287D01*
X0073231Y0122427D01*
X0073247Y0122586D01*
X0073146Y0122709D01*
X0073099Y0122861D01*
X0072959Y0122936D01*
X0072866Y0123050D01*
X0072797Y0123179D01*
X0072781Y0123337D01*
X0072658Y0123438D01*
X0072583Y0123579D01*
X0072431Y0123625D01*
X0072318Y0123718D01*
X0072225Y0123831D01*
X0072179Y0123983D01*
X0072038Y0124058D01*
X0071937Y0124181D01*
X0071779Y0124197D01*
X0071650Y0124266D01*
X0071536Y0124359D01*
X0071461Y0124499D01*
X0071309Y0124546D01*
X0071186Y0124647D01*
X0071027Y0124631D01*
X0070887Y0124674D01*
X0070758Y0124743D01*
X0070657Y0124866D01*
X0070499Y0124881D01*
X0070358Y0124956D01*
X0070206Y0124910D01*
X0070063Y0124924D01*
X0069987Y0125000D01*
X0069811Y0125000D01*
X0069486Y0125099D01*
X0069302Y0125000D01*
X0069293Y0125000D01*
X0068603Y0125068D01*
X0068520Y0125000D01*
X0068068Y0125000D01*
X0068068Y0126362D01*
X0064484Y0126362D01*
X0064484Y0126731D01*
X0064116Y0126731D01*
X0064116Y0130512D01*
X0062095Y0130512D01*
X0061637Y0130389D01*
X0061226Y0130152D01*
X0060891Y0129817D01*
X0060654Y0129407D01*
X0060531Y0128949D01*
X0060531Y0126731D01*
X0064116Y0126731D01*
X0064116Y0126362D01*
X0060531Y0126362D01*
X0060531Y0125000D01*
X0059292Y0125000D01*
X0059218Y0125061D01*
X0058517Y0125000D01*
X0058109Y0125000D01*
X0058000Y0125063D01*
X0057401Y0124902D01*
X0056807Y0124850D01*
X0056800Y0124853D01*
X0056792Y0124849D01*
X0056782Y0124848D01*
X0056777Y0124842D01*
X0056238Y0124591D01*
X0055662Y0124437D01*
X0055655Y0124438D01*
X0055647Y0124432D01*
X0055638Y0124430D01*
X0055634Y0124423D01*
X0055146Y0124082D01*
X0054607Y0123830D01*
X0054599Y0123830D01*
X0054592Y0123824D01*
X0054584Y0123820D01*
X0054581Y0123812D01*
X0054160Y0123391D01*
X0053672Y0123050D01*
X0053665Y0123048D01*
X0053659Y0123041D01*
X0053652Y0123035D01*
X0053650Y0123028D01*
X0053309Y0122540D01*
X0052888Y0122119D01*
X0052880Y0122116D01*
X0052876Y0122108D01*
X0052870Y0122101D01*
X0052870Y0122093D01*
X0052618Y0121554D01*
X0052277Y0121066D01*
X0052270Y0121062D01*
X0052268Y0121053D01*
X0052262Y0121045D01*
X0052263Y0121038D01*
X0052109Y0120462D01*
X0051858Y0119923D01*
X0051852Y0119918D01*
X0051851Y0119908D01*
X0051847Y0119900D01*
X0051850Y0119893D01*
X0051798Y0119299D01*
X0051637Y0118700D01*
X0051700Y0118591D01*
X0051700Y0118183D01*
X0051639Y0117482D01*
X0051700Y0117408D01*
X0051700Y0109415D01*
X0051624Y0109319D01*
X0051682Y0108803D01*
X0051578Y0108587D01*
X0051700Y0108239D01*
X0051700Y0107963D01*
X0051716Y0107947D01*
X0051696Y0107863D01*
X0051808Y0107686D01*
X0051831Y0107477D01*
X0051973Y0107364D01*
X0051973Y0107184D01*
X0052121Y0107035D01*
X0052190Y0106837D01*
X0052353Y0106759D01*
X0052393Y0106583D01*
X0052571Y0106471D01*
X0052683Y0106293D01*
X0052859Y0106253D01*
X0052937Y0106090D01*
X0053135Y0106021D01*
X0053284Y0105873D01*
X0053464Y0105873D01*
X0053577Y0105731D01*
X0053786Y0105708D01*
X0053963Y0105596D01*
X0054047Y0105616D01*
X0054063Y0105600D01*
X0054339Y0105600D01*
X0054687Y0105478D01*
X0054903Y0105582D01*
X0055163Y0105553D01*
X0055045Y0105484D01*
X0054710Y0105149D01*
X0054473Y0104739D01*
X0054350Y0104281D01*
X0054350Y0101866D01*
X0058722Y0101866D01*
X0058722Y0100710D01*
X0054350Y0100710D01*
X0054350Y0098295D01*
X0055326Y0096930D02*
X0041010Y0096930D01*
X0042211Y0095332D02*
X0061470Y0095332D01*
X0063274Y0096930D02*
X0066000Y0096930D01*
X0066000Y0098529D02*
X0064250Y0098529D01*
X0064250Y0100127D02*
X0066624Y0100127D01*
X0064250Y0103324D02*
X0073276Y0103324D01*
X0073276Y0101726D02*
X0059878Y0101726D01*
X0058722Y0101726D02*
X0049112Y0101726D01*
X0049112Y0100127D02*
X0054350Y0100127D01*
X0054350Y0103324D02*
X0049026Y0103324D01*
X0045331Y0103324D02*
X0044962Y0103324D01*
X0044962Y0101726D02*
X0045331Y0101726D01*
X0045331Y0100127D02*
X0044962Y0100127D01*
X0044962Y0098529D02*
X0045331Y0098529D01*
X0038454Y0100800D02*
X0038454Y0095146D01*
X0039300Y0094300D01*
X0037104Y0092134D02*
X0031200Y0092134D01*
X0031200Y0093733D02*
X0036216Y0093733D01*
X0036254Y0095332D02*
X0031200Y0095332D01*
X0031200Y0096930D02*
X0036254Y0096930D01*
X0034888Y0098529D02*
X0031200Y0098529D01*
X0031200Y0100127D02*
X0034888Y0100127D01*
X0034888Y0101726D02*
X0031200Y0101726D01*
X0031200Y0103324D02*
X0034888Y0103324D01*
X0032610Y0104923D02*
X0054579Y0104923D01*
X0052491Y0106521D02*
X0034208Y0106521D01*
X0035807Y0108120D02*
X0051700Y0108120D01*
X0051700Y0109718D02*
X0037405Y0109718D01*
X0039004Y0111317D02*
X0051700Y0111317D01*
X0051700Y0112915D02*
X0040602Y0112915D01*
X0042201Y0114514D02*
X0051700Y0114514D01*
X0051700Y0116112D02*
X0043799Y0116112D01*
X0045398Y0117711D02*
X0051659Y0117711D01*
X0051799Y0119309D02*
X0046996Y0119309D01*
X0048595Y0120908D02*
X0052229Y0120908D01*
X0053275Y0122506D02*
X0048700Y0122506D01*
X0048700Y0124105D02*
X0055179Y0124105D01*
X0060531Y0125703D02*
X0048700Y0125703D01*
X0048700Y0127302D02*
X0060531Y0127302D01*
X0060531Y0128900D02*
X0048700Y0128900D01*
X0048700Y0130499D02*
X0062046Y0130499D01*
X0064116Y0130499D02*
X0064484Y0130499D01*
X0064484Y0130512D02*
X0064484Y0126731D01*
X0068068Y0126731D01*
X0068068Y0128949D01*
X0067946Y0129407D01*
X0067709Y0129817D01*
X0067374Y0130152D01*
X0066963Y0130389D01*
X0066505Y0130512D01*
X0064484Y0130512D01*
X0064484Y0128900D02*
X0064116Y0128900D01*
X0064116Y0127302D02*
X0064484Y0127302D01*
X0066554Y0130499D02*
X0115990Y0130499D01*
X0117100Y0128900D02*
X0114412Y0128900D01*
X0116011Y0127302D02*
X0117100Y0127302D01*
X0117100Y0125703D02*
X0116900Y0125703D01*
X0116900Y0124105D02*
X0117100Y0124105D01*
X0119300Y0121800D02*
X0119300Y0130300D01*
X0116800Y0132800D01*
X0043800Y0132800D01*
X0066830Y0114514D02*
X0076782Y0114514D01*
X0075607Y0116112D02*
X0069999Y0116112D01*
X0072718Y0117711D02*
X0075200Y0117711D01*
X0075200Y0119309D02*
X0073539Y0119309D01*
X0073692Y0120908D02*
X0076027Y0120908D01*
X0077625Y0122506D02*
X0073239Y0122506D01*
X0072000Y0124105D02*
X0076188Y0124105D01*
X0075600Y0125703D02*
X0068068Y0125703D01*
X0068068Y0127302D02*
X0075694Y0127302D01*
X0076585Y0128900D02*
X0068068Y0128900D01*
X0081375Y0122506D02*
X0086700Y0122506D01*
X0086700Y0124105D02*
X0082812Y0124105D01*
X0083400Y0125703D02*
X0086700Y0125703D01*
X0087589Y0127302D02*
X0083306Y0127302D01*
X0082415Y0128900D02*
X0089188Y0128900D01*
X0094412Y0128900D02*
X0099188Y0128900D01*
X0097589Y0127302D02*
X0096011Y0127302D01*
X0104412Y0128900D02*
X0109188Y0128900D01*
X0107589Y0127302D02*
X0106011Y0127302D01*
X0116900Y0116112D02*
X0128400Y0116112D01*
X0127200Y0117711D02*
X0118322Y0117711D01*
X0119920Y0119309D02*
X0127200Y0119309D01*
X0127200Y0120908D02*
X0121500Y0120908D01*
X0121500Y0122506D02*
X0127200Y0122506D01*
X0127200Y0124105D02*
X0121500Y0124105D01*
X0121500Y0125703D02*
X0127200Y0125703D01*
X0121500Y0127302D02*
X0137334Y0127302D01*
X0137400Y0125703D02*
X0138257Y0125703D01*
X0138791Y0124105D02*
X0137400Y0124105D01*
X0137400Y0122506D02*
X0139219Y0122506D01*
X0139395Y0120908D02*
X0137400Y0120908D01*
X0137400Y0119309D02*
X0139421Y0119309D01*
X0139421Y0117711D02*
X0137400Y0117711D01*
X0139421Y0116112D02*
X0134200Y0116112D01*
X0135696Y0114514D02*
X0139421Y0114514D01*
X0139421Y0112915D02*
X0136358Y0112915D01*
X0136400Y0111317D02*
X0139421Y0111317D01*
X0139421Y0109718D02*
X0135958Y0109718D01*
X0134832Y0108120D02*
X0139421Y0108120D01*
X0139421Y0106521D02*
X0134229Y0106521D01*
X0136390Y0104923D02*
X0139421Y0104923D01*
X0139421Y0103324D02*
X0137189Y0103324D01*
X0137400Y0101726D02*
X0139421Y0101726D01*
X0139421Y0100127D02*
X0137127Y0100127D01*
X0136241Y0098529D02*
X0139421Y0098529D01*
X0139421Y0096930D02*
X0133870Y0096930D01*
X0134981Y0095332D02*
X0139421Y0095332D01*
X0139421Y0093733D02*
X0136020Y0093733D01*
X0136400Y0092134D02*
X0139421Y0092134D01*
X0139421Y0090536D02*
X0136297Y0090536D01*
X0135634Y0088937D02*
X0139421Y0088937D01*
X0139421Y0087339D02*
X0133857Y0087339D01*
X0135572Y0085740D02*
X0139421Y0085740D01*
X0139421Y0084142D02*
X0136850Y0084142D01*
X0137400Y0082543D02*
X0139421Y0082543D01*
X0139421Y0080945D02*
X0137400Y0080945D01*
X0136804Y0079346D02*
X0139421Y0079346D01*
X0139421Y0077748D02*
X0135460Y0077748D01*
X0134127Y0076149D02*
X0139421Y0076149D01*
X0139421Y0074551D02*
X0135681Y0074551D01*
X0136343Y0072952D02*
X0139421Y0072952D01*
X0139421Y0071354D02*
X0136400Y0071354D01*
X0135973Y0069755D02*
X0139421Y0069755D01*
X0139421Y0068157D02*
X0134869Y0068157D01*
X0135076Y0066558D02*
X0139421Y0066558D01*
X0139421Y0064960D02*
X0136803Y0064960D01*
X0137576Y0063361D02*
X0139421Y0063361D01*
X0139421Y0061763D02*
X0132500Y0061763D01*
X0137552Y0060164D02*
X0139421Y0060164D01*
X0139421Y0058566D02*
X0136749Y0058566D01*
X0134930Y0056967D02*
X0139421Y0056967D01*
X0139421Y0055369D02*
X0134944Y0055369D01*
X0136004Y0053770D02*
X0139421Y0053770D01*
X0139421Y0052172D02*
X0136400Y0052172D01*
X0136312Y0050573D02*
X0139421Y0050573D01*
X0139421Y0048975D02*
X0135650Y0048975D01*
X0133947Y0047376D02*
X0139421Y0047376D01*
X0139421Y0045778D02*
X0083968Y0045778D01*
X0083968Y0044179D02*
X0122658Y0044179D01*
X0120698Y0042581D02*
X0083968Y0042581D01*
X0083782Y0040982D02*
X0119438Y0040982D01*
X0120735Y0047376D02*
X0128653Y0047376D01*
X0126950Y0048975D02*
X0121517Y0048975D01*
X0121517Y0050573D02*
X0126288Y0050573D01*
X0126200Y0052172D02*
X0121517Y0052172D01*
X0121517Y0053770D02*
X0126596Y0053770D01*
X0127656Y0055369D02*
X0117080Y0055369D01*
X0115463Y0056967D02*
X0127919Y0056967D01*
X0126477Y0058566D02*
X0113865Y0058566D01*
X0112266Y0060164D02*
X0121032Y0060164D01*
X0119433Y0061763D02*
X0110668Y0061763D01*
X0109069Y0063361D02*
X0117835Y0063361D01*
X0116236Y0064960D02*
X0108668Y0064960D01*
X0108391Y0066558D02*
X0114638Y0066558D01*
X0114100Y0068157D02*
X0109068Y0068157D01*
X0109068Y0069755D02*
X0114100Y0069755D01*
X0114100Y0071354D02*
X0109068Y0071354D01*
X0108960Y0072952D02*
X0114100Y0072952D01*
X0114100Y0074551D02*
X0107600Y0074551D01*
X0107600Y0076149D02*
X0114100Y0076149D01*
X0114344Y0077748D02*
X0107600Y0077748D01*
X0107600Y0079346D02*
X0115942Y0079346D01*
X0120300Y0080945D02*
X0107600Y0080945D01*
X0107600Y0082543D02*
X0120300Y0082543D01*
X0120300Y0084142D02*
X0107600Y0084142D01*
X0107600Y0085740D02*
X0120300Y0085740D01*
X0120300Y0087339D02*
X0107600Y0087339D01*
X0107600Y0088937D02*
X0120300Y0088937D01*
X0120300Y0090536D02*
X0107600Y0090536D01*
X0107600Y0092134D02*
X0120300Y0092134D01*
X0120300Y0093733D02*
X0107600Y0093733D01*
X0108936Y0095332D02*
X0120300Y0095332D01*
X0120300Y0096930D02*
X0109900Y0096930D01*
X0109900Y0098529D02*
X0120300Y0098529D01*
X0120300Y0100127D02*
X0109900Y0100127D01*
X0109900Y0101726D02*
X0120300Y0101726D01*
X0120300Y0103324D02*
X0109900Y0103324D01*
X0110412Y0104923D02*
X0118873Y0104923D01*
X0117275Y0106521D02*
X0110950Y0106521D01*
X0110547Y0108120D02*
X0115676Y0108120D01*
X0117288Y0111317D02*
X0126200Y0111317D01*
X0126242Y0112915D02*
X0116900Y0112915D01*
X0116900Y0114514D02*
X0126904Y0114514D01*
X0126642Y0109718D02*
X0118886Y0109718D01*
X0120485Y0108120D02*
X0127768Y0108120D01*
X0130371Y0106521D02*
X0122083Y0106521D01*
X0123682Y0104923D02*
X0128210Y0104923D01*
X0127411Y0103324D02*
X0123700Y0103324D01*
X0123700Y0101726D02*
X0127200Y0101726D01*
X0127473Y0100127D02*
X0123700Y0100127D01*
X0123700Y0098529D02*
X0128359Y0098529D01*
X0130730Y0096930D02*
X0123700Y0096930D01*
X0123700Y0095332D02*
X0127619Y0095332D01*
X0126580Y0093733D02*
X0123700Y0093733D01*
X0123700Y0092134D02*
X0126200Y0092134D01*
X0126303Y0090536D02*
X0123700Y0090536D01*
X0123700Y0088937D02*
X0126965Y0088937D01*
X0128743Y0087339D02*
X0123700Y0087339D01*
X0123700Y0085740D02*
X0129028Y0085740D01*
X0127750Y0084142D02*
X0123700Y0084142D01*
X0123700Y0082543D02*
X0127200Y0082543D01*
X0101640Y0072952D02*
X0100324Y0072952D01*
X0100324Y0071354D02*
X0101531Y0071354D01*
X0099800Y0074551D02*
X0094913Y0074551D01*
X0095384Y0076149D02*
X0099800Y0076149D01*
X0099800Y0077748D02*
X0095039Y0077748D01*
X0093005Y0079346D02*
X0099800Y0079346D01*
X0099800Y0080945D02*
X0073800Y0080945D01*
X0073800Y0082543D02*
X0099800Y0082543D01*
X0099800Y0084142D02*
X0099442Y0084142D01*
X0096158Y0084142D02*
X0073800Y0084142D01*
X0073800Y0085740D02*
X0074998Y0085740D01*
X0078602Y0085740D02*
X0094900Y0085740D01*
X0094716Y0087339D02*
X0079740Y0087339D01*
X0079874Y0088937D02*
X0095576Y0088937D01*
X0097400Y0090536D02*
X0083223Y0090536D01*
X0084821Y0092134D02*
X0097400Y0092134D01*
X0097400Y0093733D02*
X0086595Y0093733D01*
X0087737Y0095332D02*
X0095907Y0095332D01*
X0095216Y0096930D02*
X0087877Y0096930D01*
X0086933Y0098529D02*
X0095471Y0098529D01*
X0092251Y0108120D02*
X0066800Y0108120D01*
X0066800Y0109718D02*
X0088604Y0109718D01*
X0089522Y0108800D02*
X0091600Y0108800D01*
X0091600Y0114100D01*
X0086300Y0114100D01*
X0086300Y0112022D01*
X0089522Y0108800D01*
X0091600Y0109718D02*
X0092000Y0109718D01*
X0092000Y0111317D02*
X0091600Y0111317D01*
X0091600Y0112915D02*
X0092000Y0112915D01*
X0087005Y0111317D02*
X0081878Y0111317D01*
X0082819Y0112915D02*
X0086300Y0112915D01*
X0086300Y0114514D02*
X0084418Y0114514D01*
X0086016Y0116112D02*
X0086300Y0116112D01*
X0084405Y0119309D02*
X0083800Y0119309D01*
X0082973Y0120908D02*
X0086004Y0120908D01*
X0076616Y0112915D02*
X0066800Y0112915D01*
X0066800Y0111317D02*
X0077522Y0111317D01*
X0073276Y0106521D02*
X0066009Y0106521D01*
X0064021Y0104923D02*
X0073276Y0104923D01*
X0073176Y0100127D02*
X0073769Y0100127D01*
X0073800Y0098529D02*
X0082667Y0098529D01*
X0081723Y0096930D02*
X0073800Y0096930D01*
X0073800Y0095332D02*
X0081863Y0095332D01*
X0081046Y0093733D02*
X0073800Y0093733D01*
X0085225Y0100127D02*
X0085225Y0100127D01*
X0085225Y0101726D02*
X0085225Y0101726D01*
X0085225Y0103324D02*
X0085225Y0103324D01*
X0085225Y0104923D02*
X0085225Y0104923D01*
X0085225Y0106521D02*
X0085225Y0106521D01*
X0108700Y0109718D02*
X0109169Y0109718D01*
X0111800Y0114300D02*
X0119300Y0121800D01*
X0121500Y0128900D02*
X0136129Y0128900D01*
X0134530Y0130499D02*
X0121500Y0130499D01*
X0120614Y0132097D02*
X0131818Y0132097D01*
X0091595Y0079346D02*
X0085505Y0079346D01*
X0085413Y0079384D02*
X0084186Y0079384D01*
X0083053Y0078915D01*
X0082185Y0078047D01*
X0081716Y0076913D01*
X0081716Y0075686D01*
X0082185Y0074553D01*
X0082538Y0074200D01*
X0082076Y0074200D01*
X0082076Y0069900D01*
X0082076Y0069900D01*
X0082076Y0065600D01*
X0083413Y0065600D01*
X0083870Y0065723D01*
X0084281Y0065960D01*
X0084321Y0066000D01*
X0086129Y0066000D01*
X0086170Y0065960D01*
X0086580Y0065723D01*
X0087038Y0065600D01*
X0088375Y0065600D01*
X0088375Y0069900D01*
X0088375Y0069900D01*
X0088375Y0074200D01*
X0087825Y0074200D01*
X0087825Y0074909D01*
X0087843Y0074957D01*
X0087825Y0075424D01*
X0087825Y0075544D01*
X0087884Y0075686D01*
X0087884Y0076913D01*
X0087415Y0078047D01*
X0086547Y0078915D01*
X0085413Y0079384D01*
X0084095Y0079346D02*
X0073800Y0079346D01*
X0073800Y0077748D02*
X0082061Y0077748D01*
X0081716Y0076149D02*
X0073800Y0076149D01*
X0073800Y0074551D02*
X0082187Y0074551D01*
X0082076Y0074200D02*
X0080739Y0074200D01*
X0080281Y0074077D01*
X0079870Y0073840D01*
X0079830Y0073800D01*
X0074096Y0073800D01*
X0073276Y0072980D01*
X0073276Y0066820D01*
X0074096Y0066000D01*
X0079830Y0066000D01*
X0079870Y0065960D01*
X0080281Y0065723D01*
X0080739Y0065600D01*
X0082076Y0065600D01*
X0082076Y0069900D01*
X0082076Y0069900D01*
X0082076Y0074200D01*
X0082076Y0072952D02*
X0082076Y0072952D01*
X0082076Y0071354D02*
X0082076Y0071354D01*
X0082076Y0069755D02*
X0082076Y0069755D01*
X0082076Y0068157D02*
X0082076Y0068157D01*
X0082076Y0066558D02*
X0082076Y0066558D01*
X0087522Y0063361D02*
X0066200Y0063361D01*
X0066200Y0061763D02*
X0087637Y0061763D01*
X0088696Y0060164D02*
X0066200Y0060164D01*
X0066200Y0058566D02*
X0092074Y0058566D01*
X0092074Y0056967D02*
X0066200Y0056967D01*
X0067418Y0055369D02*
X0092074Y0055369D01*
X0097274Y0055369D02*
X0109708Y0055369D01*
X0108109Y0056967D02*
X0097274Y0056967D01*
X0097274Y0058566D02*
X0106511Y0058566D01*
X0102476Y0060164D02*
X0097274Y0060164D01*
X0097274Y0061763D02*
X0101931Y0061763D01*
X0100685Y0063361D02*
X0097274Y0063361D01*
X0097274Y0064960D02*
X0099087Y0064960D01*
X0088420Y0064960D02*
X0066200Y0064960D01*
X0066200Y0066558D02*
X0073538Y0066558D01*
X0073276Y0068157D02*
X0066200Y0068157D01*
X0066200Y0069755D02*
X0073276Y0069755D01*
X0073276Y0071354D02*
X0066200Y0071354D01*
X0066200Y0072952D02*
X0073276Y0072952D01*
X0087539Y0077748D02*
X0089561Y0077748D01*
X0088969Y0076149D02*
X0087884Y0076149D01*
X0087825Y0074551D02*
X0088924Y0074551D01*
X0088375Y0072952D02*
X0088375Y0072952D01*
X0088375Y0071354D02*
X0088375Y0071354D01*
X0088375Y0069755D02*
X0088375Y0069755D01*
X0088375Y0068157D02*
X0088375Y0068157D01*
X0088375Y0066558D02*
X0088375Y0066558D01*
X0083283Y0053770D02*
X0083190Y0053770D01*
X0077210Y0053770D02*
X0067700Y0053770D01*
X0067700Y0052172D02*
X0076831Y0052172D01*
X0076831Y0050573D02*
X0067700Y0050573D01*
X0067662Y0048975D02*
X0076831Y0048975D01*
X0076943Y0047376D02*
X0066063Y0047376D01*
X0073600Y0036187D02*
X0074000Y0036187D01*
X0074000Y0034588D02*
X0073600Y0034588D01*
X0073600Y0032990D02*
X0074000Y0032990D01*
X0074000Y0031391D02*
X0073600Y0031391D01*
X0073600Y0029793D02*
X0074000Y0029793D01*
X0074000Y0028194D02*
X0073600Y0028194D01*
X0077472Y0028194D02*
X0135922Y0028194D01*
X0137215Y0029793D02*
X0131675Y0029793D01*
X0133274Y0031391D02*
X0138138Y0031391D01*
X0138736Y0032990D02*
X0134316Y0032990D01*
X0134978Y0034588D02*
X0139164Y0034588D01*
X0139381Y0036187D02*
X0135202Y0036187D01*
X0135202Y0037785D02*
X0139421Y0037785D01*
X0139421Y0039384D02*
X0134824Y0039384D01*
X0134162Y0040982D02*
X0139421Y0040982D01*
X0139421Y0042581D02*
X0132902Y0042581D01*
X0130942Y0044179D02*
X0139421Y0044179D01*
X0121925Y0029793D02*
X0078695Y0029793D01*
X0080016Y0040982D02*
X0080384Y0040982D01*
X0080384Y0042581D02*
X0080016Y0042581D01*
X0083457Y0047376D02*
X0084065Y0047376D01*
X0099081Y0047376D02*
X0105719Y0047376D01*
X0104937Y0048975D02*
X0099863Y0048975D01*
X0099863Y0050573D02*
X0104937Y0050573D01*
X0104937Y0052172D02*
X0099863Y0052172D01*
X0099863Y0053770D02*
X0104937Y0053770D01*
X0059878Y0096930D02*
X0058722Y0096930D01*
X0058722Y0098529D02*
X0059878Y0098529D01*
X0059878Y0100127D02*
X0058722Y0100127D01*
X0031700Y0080200D02*
X0030859Y0079359D01*
X0022831Y0079359D01*
X0022831Y0076800D02*
X0028454Y0076800D01*
X0022831Y0071354D02*
X0022832Y0071354D01*
X0022831Y0069755D02*
X0022832Y0069755D01*
X0018768Y0069755D02*
X0017440Y0069755D01*
X0017440Y0068157D02*
X0018016Y0068157D01*
X0017396Y0066558D02*
X0016511Y0066558D01*
X0017173Y0064960D02*
X0017396Y0064960D01*
X0017396Y0063361D02*
X0017243Y0063361D01*
X0017396Y0061763D02*
X0016803Y0061763D01*
X0015647Y0060164D02*
X0018098Y0060164D01*
X0018374Y0071354D02*
X0017440Y0071354D01*
X0017440Y0072952D02*
X0018440Y0072952D01*
X0018774Y0074551D02*
X0017440Y0074551D01*
X0017440Y0076149D02*
X0018774Y0076149D01*
X0018774Y0077748D02*
X0017440Y0077748D01*
X0017440Y0079346D02*
X0018774Y0079346D01*
D26*
X0065000Y0085225D02*
X0065000Y0085600D01*
X0079700Y0113500D02*
X0081000Y0113500D01*
X0091800Y0124300D01*
X0107000Y0119200D02*
X0107000Y0109000D01*
X0104000Y0106000D01*
X0104000Y0098200D01*
X0103700Y0097824D01*
X0104000Y0095200D02*
X0103700Y0094674D01*
X0104000Y0095200D02*
X0106400Y0095200D01*
X0108200Y0097000D01*
X0108200Y0106600D01*
X0102800Y0108400D02*
X0102200Y0108400D01*
X0098000Y0104200D01*
X0097824Y0103700D01*
X0111800Y0114300D02*
X0112400Y0113800D01*
X0122000Y0104200D01*
X0122000Y0078100D01*
X0126300Y0073800D01*
X0126300Y0061300D01*
X0130900Y0056200D01*
X0131000Y0056200D01*
X0131000Y0052000D01*
X0131300Y0051800D01*
X0125098Y0061300D02*
X0122300Y0061300D01*
X0115800Y0067800D01*
X0115800Y0076800D01*
X0117300Y0078300D01*
X0119800Y0078300D01*
X0123436Y0074967D01*
X0125100Y0073303D01*
X0125100Y0061331D01*
X0125098Y0061300D01*
X0125099Y0061302D02*
X0122298Y0061302D01*
X0121700Y0061900D02*
X0125100Y0061900D01*
X0125100Y0062499D02*
X0121101Y0062499D01*
X0120503Y0063097D02*
X0125100Y0063097D01*
X0125100Y0063696D02*
X0119904Y0063696D01*
X0119306Y0064294D02*
X0125100Y0064294D01*
X0125100Y0064893D02*
X0118707Y0064893D01*
X0118109Y0065491D02*
X0125100Y0065491D01*
X0125100Y0066090D02*
X0117510Y0066090D01*
X0116912Y0066688D02*
X0125100Y0066688D01*
X0125100Y0067287D02*
X0116313Y0067287D01*
X0115800Y0067885D02*
X0125100Y0067885D01*
X0125100Y0068484D02*
X0115800Y0068484D01*
X0115800Y0069082D02*
X0125100Y0069082D01*
X0125100Y0069681D02*
X0115800Y0069681D01*
X0115800Y0070279D02*
X0125100Y0070279D01*
X0125100Y0070878D02*
X0115800Y0070878D01*
X0115800Y0071476D02*
X0125100Y0071476D01*
X0125100Y0072075D02*
X0115800Y0072075D01*
X0115800Y0072673D02*
X0125100Y0072673D01*
X0125100Y0073272D02*
X0115800Y0073272D01*
X0115800Y0073870D02*
X0124532Y0073870D01*
X0123934Y0074469D02*
X0115800Y0074469D01*
X0115800Y0075068D02*
X0123326Y0075068D01*
X0122673Y0075666D02*
X0115800Y0075666D01*
X0115800Y0076265D02*
X0122020Y0076265D01*
X0121368Y0076863D02*
X0115863Y0076863D01*
X0116462Y0077462D02*
X0120715Y0077462D01*
X0120062Y0078060D02*
X0117060Y0078060D01*
X0097824Y0069900D02*
X0098000Y0069400D01*
X0107000Y0119200D02*
X0111800Y0124000D01*
X0111800Y0124300D01*
D27*
X0098300Y0097300D02*
X0099300Y0096300D01*
X0099300Y0088300D01*
X0084800Y0094800D02*
X0081524Y0091524D01*
X0069900Y0091524D01*
X0069900Y0088375D02*
X0061072Y0088375D01*
X0057646Y0091800D01*
X0062725Y0085225D02*
X0065000Y0085225D01*
X0069900Y0085225D01*
X0069900Y0082076D02*
X0064076Y0082076D01*
X0061800Y0079800D01*
X0061800Y0050900D01*
X0062200Y0050500D01*
X0065800Y0049800D02*
X0059800Y0043800D01*
X0042000Y0043800D01*
X0041100Y0044700D01*
X0040200Y0043800D01*
X0035400Y0043800D01*
X0033800Y0045400D01*
X0033800Y0056800D01*
X0031500Y0059100D01*
X0039300Y0049300D02*
X0043454Y0049300D01*
X0039300Y0049300D02*
X0036800Y0046800D01*
X0039700Y0038200D02*
X0065600Y0038200D01*
X0069100Y0041700D01*
X0068500Y0041100D01*
X0065800Y0049800D02*
X0065800Y0054300D01*
X0064300Y0055800D01*
X0064300Y0078300D01*
X0064926Y0078926D01*
X0069900Y0078926D01*
X0062725Y0085225D02*
X0059300Y0081800D01*
X0059300Y0058454D01*
X0050146Y0049300D01*
X0039700Y0038200D02*
X0033800Y0032300D01*
X0029142Y0081300D02*
X0026989Y0081300D01*
X0026989Y0081918D01*
X0022832Y0081918D01*
X0022832Y0081918D01*
X0026989Y0081918D01*
X0026989Y0082903D01*
X0026887Y0083284D01*
X0026689Y0083627D01*
X0026410Y0083906D01*
X0026068Y0084103D01*
X0025686Y0084205D01*
X0022832Y0084205D01*
X0022832Y0081918D01*
X0022831Y0081918D01*
X0018674Y0081918D01*
X0018674Y0081300D01*
X0017140Y0081300D01*
X0017140Y0085720D01*
X0016800Y0086060D01*
X0016800Y0088523D01*
X0016943Y0088869D01*
X0016943Y0090716D01*
X0016800Y0091062D01*
X0016800Y0105100D01*
X0029300Y0105100D01*
X0029300Y0081681D01*
X0029142Y0081300D01*
X0029300Y0081711D02*
X0026989Y0081711D01*
X0026989Y0082709D02*
X0029300Y0082709D01*
X0029300Y0083708D02*
X0026608Y0083708D01*
X0025551Y0085543D02*
X0026195Y0086187D01*
X0026195Y0092610D01*
X0025551Y0093254D01*
X0018340Y0093254D01*
X0017696Y0092610D01*
X0017696Y0086187D01*
X0018340Y0085543D01*
X0025551Y0085543D01*
X0025713Y0085705D02*
X0029300Y0085705D01*
X0029300Y0086703D02*
X0026195Y0086703D01*
X0026195Y0087702D02*
X0029300Y0087702D01*
X0029300Y0088700D02*
X0026195Y0088700D01*
X0026195Y0089699D02*
X0029300Y0089699D01*
X0029300Y0090697D02*
X0026195Y0090697D01*
X0026195Y0091696D02*
X0029300Y0091696D01*
X0029300Y0092694D02*
X0026111Y0092694D01*
X0029300Y0093693D02*
X0016800Y0093693D01*
X0016800Y0094691D02*
X0029300Y0094691D01*
X0029300Y0095690D02*
X0016800Y0095690D01*
X0016800Y0096688D02*
X0029300Y0096688D01*
X0029300Y0097687D02*
X0016800Y0097687D01*
X0016800Y0098685D02*
X0029300Y0098685D01*
X0029300Y0099684D02*
X0016800Y0099684D01*
X0016800Y0100682D02*
X0029300Y0100682D01*
X0029300Y0101681D02*
X0016800Y0101681D01*
X0016800Y0101800D02*
X0016800Y0108100D01*
X0022398Y0113698D01*
X0023412Y0113698D01*
X0026390Y0114931D01*
X0028669Y0117210D01*
X0029902Y0120188D01*
X0029902Y0123412D01*
X0028669Y0126390D01*
X0026390Y0128669D01*
X0023412Y0129902D01*
X0020188Y0129902D01*
X0017210Y0128669D01*
X0014931Y0126390D01*
X0013698Y0123412D01*
X0013698Y0120188D01*
X0014931Y0117210D01*
X0017210Y0114931D01*
X0020188Y0113698D01*
X0023412Y0113698D01*
X0026390Y0114931D01*
X0028669Y0117210D01*
X0029902Y0120188D01*
X0029902Y0123412D01*
X0028669Y0126390D01*
X0026800Y0128258D01*
X0026800Y0133501D01*
X0046800Y0133501D01*
X0046800Y0122700D01*
X0037328Y0122700D01*
X0037021Y0122832D01*
X0036692Y0122700D01*
X0036337Y0122700D01*
X0036263Y0122626D01*
X0035628Y0122600D01*
X0034209Y0122600D01*
X0033608Y0121999D01*
X0033540Y0121967D01*
X0033103Y0121494D01*
X0032100Y0120491D01*
X0032100Y0119641D01*
X0032074Y0119571D01*
X0032100Y0118928D01*
X0032100Y0117509D01*
X0032701Y0116908D01*
X0032733Y0116840D01*
X0033206Y0116403D01*
X0034209Y0115400D01*
X0035059Y0115400D01*
X0035900Y0115091D01*
X0035900Y0114637D01*
X0036837Y0113700D01*
X0037769Y0112769D01*
X0029300Y0104300D01*
X0029300Y0101800D01*
X0016800Y0101800D01*
X0016800Y0102679D02*
X0029300Y0102679D01*
X0016800Y0102679D01*
X0016800Y0103678D02*
X0029300Y0103678D01*
X0016800Y0103678D01*
X0016800Y0104676D02*
X0029676Y0104676D01*
X0029300Y0104676D02*
X0016800Y0104676D01*
X0016800Y0105675D02*
X0030675Y0105675D01*
X0031673Y0106673D02*
X0016800Y0106673D01*
X0016800Y0106800D02*
X0008800Y0114800D01*
X0008800Y0120501D01*
X0008911Y0122198D01*
X0009790Y0125476D01*
X0009790Y0125476D01*
X0011486Y0128415D01*
X0013886Y0130814D01*
X0016825Y0132511D01*
X0020103Y0133390D01*
X0021800Y0133501D01*
X0030099Y0133501D01*
X0031800Y0131800D01*
X0031800Y0127897D01*
X0031700Y0127394D01*
X0031700Y0127300D01*
X0031800Y0127300D01*
X0031800Y0126700D01*
X0031700Y0126700D01*
X0031700Y0126606D01*
X0031800Y0126103D01*
X0031800Y0116800D01*
X0021800Y0106800D01*
X0016800Y0106800D01*
X0016800Y0107672D02*
X0032672Y0107672D01*
X0033670Y0108670D02*
X0017370Y0108670D01*
X0018369Y0109669D02*
X0034669Y0109669D01*
X0035668Y0110668D02*
X0019368Y0110668D01*
X0020366Y0111666D02*
X0036666Y0111666D01*
X0037665Y0112665D02*
X0021365Y0112665D01*
X0022363Y0113663D02*
X0036874Y0113663D01*
X0035900Y0114662D02*
X0025739Y0114662D01*
X0029662Y0114662D01*
X0030660Y0115660D02*
X0027119Y0115660D01*
X0033949Y0115660D01*
X0032929Y0116659D02*
X0028117Y0116659D01*
X0031659Y0116659D01*
X0031800Y0117657D02*
X0028854Y0117657D01*
X0032100Y0117657D01*
X0032100Y0118656D02*
X0029267Y0118656D01*
X0031800Y0118656D01*
X0031800Y0119654D02*
X0029681Y0119654D01*
X0032100Y0119654D01*
X0032261Y0120653D02*
X0029902Y0120653D01*
X0031800Y0120653D01*
X0031800Y0121651D02*
X0029902Y0121651D01*
X0033248Y0121651D01*
X0031800Y0122650D02*
X0029902Y0122650D01*
X0036287Y0122650D01*
X0036094Y0123000D02*
X0036867Y0123154D01*
X0037595Y0123455D01*
X0038250Y0123893D01*
X0038807Y0124450D01*
X0039245Y0125105D01*
X0039546Y0125833D01*
X0039700Y0126606D01*
X0039700Y0126700D01*
X0036000Y0126700D01*
X0036000Y0127300D01*
X0035400Y0127300D01*
X0035400Y0131000D01*
X0035306Y0131000D01*
X0034533Y0130846D01*
X0033805Y0130545D01*
X0033150Y0130107D01*
X0032593Y0129550D01*
X0032155Y0128895D01*
X0031854Y0128167D01*
X0031700Y0127394D01*
X0031700Y0127300D01*
X0035400Y0127300D01*
X0035400Y0126700D01*
X0031700Y0126700D01*
X0031700Y0126606D01*
X0031854Y0125833D01*
X0032155Y0125105D01*
X0032593Y0124450D01*
X0033150Y0123893D01*
X0033805Y0123455D01*
X0034533Y0123154D01*
X0035306Y0123000D01*
X0035400Y0123000D01*
X0035400Y0126700D01*
X0036000Y0126700D01*
X0036000Y0123000D01*
X0036094Y0123000D01*
X0036000Y0123648D02*
X0035400Y0123648D01*
X0035400Y0124647D02*
X0036000Y0124647D01*
X0036000Y0125645D02*
X0035400Y0125645D01*
X0035400Y0126644D02*
X0036000Y0126644D01*
X0036000Y0127300D02*
X0039700Y0127300D01*
X0039700Y0127394D01*
X0039546Y0128167D01*
X0039245Y0128895D01*
X0038807Y0129550D01*
X0038250Y0130107D01*
X0037595Y0130545D01*
X0036867Y0130846D01*
X0036094Y0131000D01*
X0036000Y0131000D01*
X0036000Y0127300D01*
X0036000Y0127642D02*
X0035400Y0127642D01*
X0035400Y0128641D02*
X0036000Y0128641D01*
X0036000Y0129639D02*
X0035400Y0129639D01*
X0035400Y0130638D02*
X0036000Y0130638D01*
X0037370Y0130638D02*
X0046800Y0130638D01*
X0046800Y0131636D02*
X0026800Y0131636D01*
X0026800Y0130638D02*
X0034030Y0130638D01*
X0032682Y0129639D02*
X0026800Y0129639D01*
X0026800Y0128641D02*
X0032050Y0128641D01*
X0031800Y0128641D02*
X0026418Y0128641D01*
X0027416Y0127642D02*
X0031749Y0127642D01*
X0027416Y0127642D01*
X0028415Y0126644D02*
X0031700Y0126644D01*
X0028415Y0126644D01*
X0028977Y0125645D02*
X0031800Y0125645D01*
X0031932Y0125645D02*
X0028977Y0125645D01*
X0029391Y0124647D02*
X0031800Y0124647D01*
X0032462Y0124647D02*
X0029391Y0124647D01*
X0029804Y0123648D02*
X0031800Y0123648D01*
X0033517Y0123648D02*
X0029804Y0123648D01*
X0031800Y0129639D02*
X0024047Y0129639D01*
X0026800Y0132635D02*
X0046800Y0132635D01*
X0046800Y0129639D02*
X0038718Y0129639D01*
X0039350Y0128641D02*
X0046800Y0128641D01*
X0046800Y0127642D02*
X0039651Y0127642D01*
X0039700Y0126644D02*
X0046800Y0126644D01*
X0046800Y0125645D02*
X0039468Y0125645D01*
X0038938Y0124647D02*
X0046800Y0124647D01*
X0046800Y0123648D02*
X0037883Y0123648D01*
X0039257Y0121100D02*
X0051800Y0121100D01*
X0040100Y0109400D01*
X0040100Y0112700D01*
X0037578Y0115222D01*
X0039700Y0117343D01*
X0039700Y0118700D01*
X0039100Y0118700D01*
X0039100Y0119300D01*
X0039700Y0119300D01*
X0039700Y0120657D01*
X0039257Y0121100D01*
X0039700Y0120653D02*
X0051353Y0120653D01*
X0050354Y0119654D02*
X0039700Y0119654D01*
X0039700Y0118656D02*
X0049356Y0118656D01*
X0048357Y0117657D02*
X0039700Y0117657D01*
X0039015Y0116659D02*
X0047359Y0116659D01*
X0046360Y0115660D02*
X0038017Y0115660D01*
X0038138Y0114662D02*
X0045362Y0114662D01*
X0044363Y0113663D02*
X0039137Y0113663D01*
X0040100Y0112665D02*
X0043365Y0112665D01*
X0042366Y0111666D02*
X0040100Y0111666D01*
X0040100Y0110668D02*
X0041368Y0110668D01*
X0040369Y0109669D02*
X0040100Y0109669D01*
X0028663Y0113663D02*
X0009937Y0113663D01*
X0010935Y0112665D02*
X0027665Y0112665D01*
X0026666Y0111666D02*
X0011934Y0111666D01*
X0012932Y0110668D02*
X0025668Y0110668D01*
X0024669Y0109669D02*
X0013931Y0109669D01*
X0014930Y0108670D02*
X0023670Y0108670D01*
X0022672Y0107672D02*
X0015928Y0107672D01*
X0017861Y0114662D02*
X0008938Y0114662D01*
X0008800Y0115660D02*
X0016481Y0115660D01*
X0015483Y0116659D02*
X0008800Y0116659D01*
X0008800Y0117657D02*
X0014746Y0117657D01*
X0014333Y0118656D02*
X0008800Y0118656D01*
X0008800Y0119654D02*
X0013919Y0119654D01*
X0013698Y0120653D02*
X0008810Y0120653D01*
X0008875Y0121651D02*
X0013698Y0121651D01*
X0013698Y0122650D02*
X0009032Y0122650D01*
X0009300Y0123648D02*
X0013796Y0123648D01*
X0014209Y0124647D02*
X0009567Y0124647D01*
X0009887Y0125645D02*
X0014623Y0125645D01*
X0015185Y0126644D02*
X0010464Y0126644D01*
X0011040Y0127642D02*
X0016184Y0127642D01*
X0017182Y0128641D02*
X0011712Y0128641D01*
X0012711Y0129639D02*
X0019553Y0129639D01*
X0017286Y0132635D02*
X0030965Y0132635D01*
X0031800Y0131636D02*
X0015310Y0131636D01*
X0013709Y0130638D02*
X0031800Y0130638D01*
X0053902Y0119810D02*
X0053700Y0119058D01*
X0053700Y0118284D01*
X0053600Y0118043D01*
X0053600Y0108750D01*
X0053631Y0108472D01*
X0053724Y0108208D01*
X0053873Y0107971D01*
X0054071Y0107773D01*
X0054308Y0107624D01*
X0054572Y0107531D01*
X0054850Y0107500D01*
X0063650Y0107500D01*
X0063928Y0107531D01*
X0064192Y0107624D01*
X0064429Y0107773D01*
X0064627Y0107971D01*
X0064776Y0108208D01*
X0064869Y0108472D01*
X0064900Y0108750D01*
X0064900Y0114300D01*
X0064971Y0115022D01*
X0065182Y0115716D01*
X0065434Y0116188D01*
X0064784Y0116188D01*
X0064784Y0119369D01*
X0063816Y0119369D01*
X0063816Y0116188D01*
X0063450Y0116188D01*
X0063650Y0115989D01*
X0063847Y0115647D01*
X0063950Y0115265D01*
X0063950Y0112812D01*
X0059800Y0112812D01*
X0058800Y0112812D01*
X0058800Y0116568D01*
X0055953Y0116568D01*
X0055571Y0116465D01*
X0055229Y0116268D01*
X0054950Y0115989D01*
X0054753Y0115647D01*
X0054650Y0115265D01*
X0054650Y0112812D01*
X0058800Y0112812D01*
X0058800Y0111812D01*
X0054650Y0111812D01*
X0054650Y0109358D01*
X0054753Y0108977D01*
X0054950Y0108635D01*
X0055229Y0108356D01*
X0055571Y0108158D01*
X0055953Y0108056D01*
X0058800Y0108056D01*
X0058800Y0111812D01*
X0059800Y0111812D01*
X0059800Y0112812D01*
X0059800Y0116568D01*
X0061331Y0116568D01*
X0061131Y0116767D01*
X0060934Y0117109D01*
X0060831Y0117491D01*
X0060831Y0119369D01*
X0063816Y0119369D01*
X0063816Y0120338D01*
X0060831Y0120338D01*
X0060831Y0122216D01*
X0060934Y0122598D01*
X0061131Y0122940D01*
X0061291Y0123100D01*
X0058600Y0123100D01*
X0057732Y0123024D01*
X0056890Y0122798D01*
X0056100Y0122430D01*
X0055386Y0121930D01*
X0054770Y0121314D01*
X0054270Y0120600D01*
X0053902Y0119810D01*
X0053860Y0119654D02*
X0063816Y0119654D01*
X0064784Y0119654D02*
X0071543Y0119654D01*
X0071510Y0119543D02*
X0071279Y0119111D01*
X0070968Y0118732D01*
X0070589Y0118421D01*
X0070157Y0118190D01*
X0069688Y0118048D01*
X0069200Y0118000D01*
X0068600Y0118000D01*
X0067878Y0117929D01*
X0067768Y0117896D01*
X0067768Y0119369D01*
X0064784Y0119369D01*
X0064784Y0120338D01*
X0067768Y0120338D01*
X0067768Y0122216D01*
X0067666Y0122598D01*
X0067469Y0122940D01*
X0067309Y0123100D01*
X0069200Y0123100D01*
X0069688Y0123052D01*
X0070157Y0122910D01*
X0070589Y0122679D01*
X0070968Y0122368D01*
X0071279Y0121989D01*
X0071510Y0121557D01*
X0071652Y0121088D01*
X0071700Y0120600D01*
X0071700Y0120500D01*
X0071652Y0120012D01*
X0071510Y0119543D01*
X0070874Y0118656D02*
X0067768Y0118656D01*
X0067768Y0120653D02*
X0071695Y0120653D01*
X0071459Y0121651D02*
X0067768Y0121651D01*
X0067636Y0122650D02*
X0070624Y0122650D01*
X0064784Y0118656D02*
X0063816Y0118656D01*
X0063816Y0117657D02*
X0064784Y0117657D01*
X0064784Y0116659D02*
X0063816Y0116659D01*
X0063840Y0115660D02*
X0065165Y0115660D01*
X0064936Y0114662D02*
X0063950Y0114662D01*
X0063950Y0113663D02*
X0064900Y0113663D01*
X0064900Y0112665D02*
X0059800Y0112665D01*
X0059800Y0111812D02*
X0063950Y0111812D01*
X0063950Y0109358D01*
X0063847Y0108977D01*
X0063650Y0108635D01*
X0063371Y0108356D01*
X0063029Y0108158D01*
X0062647Y0108056D01*
X0059800Y0108056D01*
X0059800Y0111812D01*
X0059800Y0111666D02*
X0058800Y0111666D01*
X0058800Y0110668D02*
X0059800Y0110668D01*
X0059800Y0109669D02*
X0058800Y0109669D01*
X0058800Y0108670D02*
X0059800Y0108670D01*
X0058800Y0112665D02*
X0053600Y0112665D01*
X0053600Y0113663D02*
X0054650Y0113663D01*
X0054650Y0114662D02*
X0053600Y0114662D01*
X0053600Y0115660D02*
X0054760Y0115660D01*
X0053600Y0116659D02*
X0061240Y0116659D01*
X0060831Y0117657D02*
X0053600Y0117657D01*
X0053700Y0118656D02*
X0060831Y0118656D01*
X0060831Y0120653D02*
X0054307Y0120653D01*
X0055107Y0121651D02*
X0060831Y0121651D01*
X0060964Y0122650D02*
X0056571Y0122650D01*
X0058800Y0115660D02*
X0059800Y0115660D01*
X0059800Y0114662D02*
X0058800Y0114662D01*
X0058800Y0113663D02*
X0059800Y0113663D01*
X0063950Y0111666D02*
X0064900Y0111666D01*
X0064900Y0110668D02*
X0063950Y0110668D01*
X0063950Y0109669D02*
X0064900Y0109669D01*
X0064891Y0108670D02*
X0063670Y0108670D01*
X0064269Y0107672D02*
X0054231Y0107672D01*
X0053609Y0108670D02*
X0054930Y0108670D01*
X0054650Y0109669D02*
X0053600Y0109669D01*
X0053600Y0110668D02*
X0054650Y0110668D01*
X0054650Y0111666D02*
X0053600Y0111666D01*
X0029300Y0084706D02*
X0017140Y0084706D01*
X0017140Y0083708D02*
X0019055Y0083708D01*
X0018974Y0083627D02*
X0018776Y0083284D01*
X0018674Y0082903D01*
X0018674Y0081918D01*
X0022831Y0081918D01*
X0022831Y0081918D01*
X0022831Y0084205D01*
X0019977Y0084205D01*
X0019595Y0084103D01*
X0019253Y0083906D01*
X0018974Y0083627D01*
X0018674Y0082709D02*
X0017140Y0082709D01*
X0017140Y0081711D02*
X0018674Y0081711D01*
X0022831Y0082709D02*
X0022832Y0082709D01*
X0022831Y0083708D02*
X0022832Y0083708D01*
X0018178Y0085705D02*
X0017140Y0085705D01*
X0016800Y0086703D02*
X0017696Y0086703D01*
X0017696Y0087702D02*
X0016800Y0087702D01*
X0016874Y0088700D02*
X0017696Y0088700D01*
X0017696Y0089699D02*
X0016943Y0089699D01*
X0016943Y0090697D02*
X0017696Y0090697D01*
X0017696Y0091696D02*
X0016800Y0091696D01*
X0016800Y0092694D02*
X0017780Y0092694D01*
X0084800Y0094800D02*
X0084800Y0096300D01*
D28*
X0096800Y0109300D03*
X0113300Y0100300D03*
D29*
X0118300Y0102800D03*
X0123800Y0108300D03*
X0125300Y0103300D03*
D30*
X0118800Y0075300D03*
X0118800Y0068300D03*
X0123200Y0068300D03*
X0123200Y0063800D03*
X0101800Y0056800D03*
X0090800Y0062700D03*
D31*
X0125300Y0078800D02*
X0130800Y0073300D01*
X0130800Y0071800D01*
X0050100Y0119000D02*
X0050100Y0119300D01*
X0046800Y0058454D02*
X0046802Y0058432D01*
X0046806Y0058411D01*
X0046814Y0058390D01*
X0046824Y0058371D01*
X0046838Y0058353D01*
X0046853Y0058338D01*
X0046871Y0058324D01*
X0046890Y0058314D01*
X0046911Y0058306D01*
X0046932Y0058302D01*
X0046954Y0058300D01*
X0046800Y0058454D02*
X0046799Y0058442D01*
X0046795Y0058431D01*
X0046788Y0058420D01*
X0046780Y0058412D01*
X0046769Y0058405D01*
X0046758Y0058401D01*
X0046746Y0058400D01*
D32*
X0041800Y0111800D02*
X0041800Y0116681D01*
X0041681Y0116800D01*
X0035700Y0119000D01*
X0041800Y0111800D02*
X0049000Y0119000D01*
X0050100Y0119000D01*
D33*
X0058400Y0120300D03*
D34*
X0094674Y0107174D02*
X0094674Y0103700D01*
X0094674Y0107174D02*
X0096800Y0109300D01*
X0092300Y0076300D02*
X0091524Y0075524D01*
X0091524Y0069900D01*
X0091500Y0071400D02*
X0091500Y0063400D01*
X0090800Y0062700D01*
X0094674Y0069900D02*
X0094674Y0052201D01*
X0091573Y0051100D01*
X0080654Y0051100D01*
X0080200Y0050646D01*
X0085225Y0069900D02*
X0085225Y0075375D01*
X0084800Y0076300D01*
X0097824Y0069900D02*
X0104270Y0063454D01*
X0105300Y0063454D01*
X0115227Y0053527D01*
X0113227Y0051100D01*
D35*
X0097800Y0086800D02*
X0099300Y0088300D01*
X0076800Y0088300D02*
X0069975Y0088300D01*
X0069900Y0088375D01*
X0069900Y0091524D02*
X0065576Y0091524D01*
X0063800Y0093300D01*
X0056300Y0087300D02*
X0055454Y0087300D01*
X0050954Y0091800D01*
D36*
X0118800Y0075300D02*
X0118800Y0068300D01*
X0130800Y0071800D02*
X0131800Y0071800D01*
D37*
X0069454Y0120546D03*
D38*
X0102800Y0108400D03*
X0108200Y0106600D03*
X0065000Y0085600D03*
M02*
