G75*
%MOIN*%
%OFA0B0*%
%FSLAX25Y25*%
%IPPOS*%
%LPD*%
%AMOC8*
5,1,8,0,0,1.08239X$1,22.5*
%
%ADD10C,0.00300*%
%ADD11C,0.00800*%
%ADD12C,0.00100*%
%ADD13C,0.00500*%
%ADD14C,0.02200*%
%ADD15R,0.01800X0.03000*%
%ADD16C,0.00200*%
%ADD17C,0.00600*%
D10*
X0016866Y0030850D02*
X0017350Y0031334D01*
X0017350Y0031817D01*
X0016866Y0032301D01*
X0014448Y0032301D01*
X0014448Y0031817D02*
X0014448Y0032785D01*
X0014448Y0033797D02*
X0014448Y0035731D01*
X0014448Y0036743D02*
X0014448Y0038678D01*
X0014448Y0037711D02*
X0017350Y0037711D01*
X0017350Y0039690D02*
X0017350Y0041141D01*
X0016866Y0041625D01*
X0014931Y0041625D01*
X0014448Y0041141D01*
X0014448Y0039690D01*
X0017350Y0039690D01*
X0017350Y0042636D02*
X0017350Y0043604D01*
X0017350Y0043120D02*
X0014448Y0043120D01*
X0014448Y0042636D02*
X0014448Y0043604D01*
X0015899Y0034764D02*
X0015899Y0033797D01*
X0017350Y0033797D02*
X0014448Y0033797D01*
X0028364Y0052250D02*
X0028364Y0055152D01*
X0029815Y0055152D01*
X0030299Y0054669D01*
X0030299Y0053701D01*
X0029815Y0053217D01*
X0028364Y0053217D01*
X0029331Y0053217D02*
X0030299Y0052250D01*
X0032278Y0052250D02*
X0032278Y0055152D01*
X0033245Y0055152D02*
X0031310Y0055152D01*
X0034257Y0054669D02*
X0034257Y0054185D01*
X0034741Y0053701D01*
X0035708Y0053701D01*
X0036192Y0053217D01*
X0036192Y0052734D01*
X0035708Y0052250D01*
X0034741Y0052250D01*
X0034257Y0052734D01*
X0034257Y0054669D02*
X0034741Y0055152D01*
X0035708Y0055152D01*
X0036192Y0054669D01*
X0037203Y0055152D02*
X0039138Y0053701D01*
X0037203Y0052250D01*
X0035199Y0057864D02*
X0035199Y0059799D01*
X0036166Y0060810D02*
X0036650Y0060810D01*
X0036166Y0060810D02*
X0034231Y0062745D01*
X0033748Y0062745D01*
X0033748Y0060810D01*
X0033748Y0059315D02*
X0035199Y0057864D01*
X0036650Y0059315D02*
X0033748Y0059315D01*
X0034715Y0063757D02*
X0034715Y0065208D01*
X0035199Y0065692D01*
X0036166Y0065692D01*
X0036650Y0065208D01*
X0036650Y0063757D01*
X0037617Y0063757D02*
X0034715Y0063757D01*
X0035199Y0066703D02*
X0035199Y0067671D01*
X0034994Y0067556D02*
X0034994Y0071259D01*
X0036209Y0071259D02*
X0036209Y0069408D01*
X0037443Y0070025D01*
X0038060Y0070025D01*
X0038677Y0069408D01*
X0038677Y0068173D01*
X0038060Y0067556D01*
X0036826Y0067556D01*
X0036209Y0068173D01*
X0034994Y0067556D02*
X0032526Y0071259D01*
X0032526Y0067556D01*
X0031305Y0067556D02*
X0030070Y0067556D01*
X0030687Y0067556D02*
X0030687Y0071259D01*
X0030070Y0071259D02*
X0031305Y0071259D01*
X0033748Y0068638D02*
X0033748Y0066703D01*
X0036650Y0066703D01*
X0036209Y0071259D02*
X0038677Y0071259D01*
X0028856Y0070642D02*
X0028856Y0069408D01*
X0028239Y0068791D01*
X0026387Y0068791D01*
X0026387Y0067556D02*
X0026387Y0071259D01*
X0028239Y0071259D01*
X0028856Y0070642D01*
X0030188Y0082265D02*
X0031423Y0082265D01*
X0030805Y0082265D02*
X0030805Y0085968D01*
X0030188Y0085968D02*
X0031423Y0085968D01*
X0032644Y0085968D02*
X0035112Y0082265D01*
X0035112Y0085968D01*
X0034650Y0086369D02*
X0035134Y0086852D01*
X0036101Y0086852D01*
X0036585Y0086369D01*
X0036585Y0085885D01*
X0034650Y0083950D01*
X0036585Y0083950D01*
X0036327Y0084734D02*
X0037561Y0085968D01*
X0037561Y0082265D01*
X0036327Y0082265D02*
X0038796Y0082265D01*
X0037597Y0083950D02*
X0037597Y0084434D01*
X0039531Y0086369D01*
X0039531Y0086852D01*
X0037597Y0086852D01*
X0040543Y0086369D02*
X0040543Y0085401D01*
X0041027Y0084917D01*
X0041027Y0083950D01*
X0040543Y0083950D01*
X0041994Y0083950D02*
X0041994Y0084917D01*
X0042478Y0085401D01*
X0042478Y0086369D01*
X0041994Y0086852D01*
X0041027Y0086852D01*
X0040543Y0086369D01*
X0041994Y0083950D02*
X0042478Y0083950D01*
X0045048Y0086017D02*
X0047950Y0086017D01*
X0047950Y0085050D02*
X0047950Y0086985D01*
X0047466Y0087997D02*
X0045531Y0089931D01*
X0047466Y0089931D01*
X0047950Y0089448D01*
X0047950Y0088480D01*
X0047466Y0087997D01*
X0045531Y0087997D01*
X0045048Y0088480D01*
X0045048Y0089448D01*
X0045531Y0089931D01*
X0045048Y0090943D02*
X0047950Y0090943D01*
X0046983Y0090943D02*
X0045048Y0092878D01*
X0045531Y0093890D02*
X0045048Y0094373D01*
X0045048Y0095341D01*
X0045531Y0095825D01*
X0046499Y0095825D01*
X0046983Y0095341D01*
X0047950Y0095341D01*
X0047950Y0095825D01*
X0047950Y0094373D02*
X0046983Y0094373D01*
X0046499Y0093890D01*
X0045531Y0093890D01*
X0047950Y0093890D02*
X0047950Y0094373D01*
X0047950Y0092878D02*
X0046499Y0091427D01*
X0049899Y0095964D02*
X0049899Y0097899D01*
X0050866Y0098910D02*
X0051350Y0098910D01*
X0050866Y0098910D02*
X0048931Y0100845D01*
X0048448Y0100845D01*
X0048448Y0098910D01*
X0048448Y0097415D02*
X0049899Y0095964D01*
X0051350Y0097415D02*
X0048448Y0097415D01*
X0049415Y0101857D02*
X0049415Y0103308D01*
X0049899Y0103792D01*
X0050866Y0103792D01*
X0051350Y0103308D01*
X0051350Y0101857D01*
X0052317Y0101857D02*
X0049415Y0101857D01*
X0049899Y0104803D02*
X0049899Y0105771D01*
X0051350Y0104803D02*
X0048448Y0104803D01*
X0048448Y0106738D01*
X0031309Y0099327D02*
X0031309Y0096859D01*
X0030692Y0096241D01*
X0028840Y0096241D01*
X0028840Y0099945D01*
X0030692Y0099945D01*
X0031309Y0099327D01*
X0027626Y0099945D02*
X0027626Y0096241D01*
X0025157Y0099945D01*
X0025157Y0096241D01*
X0023943Y0096241D02*
X0021474Y0096241D01*
X0021474Y0099945D01*
X0023943Y0099945D01*
X0022708Y0098093D02*
X0021474Y0098093D01*
X0016576Y0098710D02*
X0015959Y0098093D01*
X0014108Y0098093D01*
X0012893Y0099327D02*
X0012276Y0099945D01*
X0011042Y0099945D01*
X0010424Y0099327D01*
X0010424Y0096859D01*
X0011042Y0096241D01*
X0012276Y0096241D01*
X0012893Y0096859D01*
X0014108Y0096241D02*
X0015959Y0096241D01*
X0016576Y0096859D01*
X0016576Y0097476D01*
X0015959Y0098093D01*
X0016576Y0098710D02*
X0016576Y0099327D01*
X0015959Y0099945D01*
X0014108Y0099945D01*
X0014108Y0096241D01*
X0009210Y0098093D02*
X0008593Y0097476D01*
X0006741Y0097476D01*
X0006741Y0096241D02*
X0006741Y0099945D01*
X0008593Y0099945D01*
X0009210Y0099327D01*
X0009210Y0098093D01*
X0026505Y0085968D02*
X0026505Y0082265D01*
X0026505Y0083499D02*
X0028357Y0083499D01*
X0028974Y0084117D01*
X0028974Y0085351D01*
X0028357Y0085968D01*
X0026505Y0085968D01*
X0032644Y0085968D02*
X0032644Y0082265D01*
X0045048Y0086017D02*
X0046015Y0085050D01*
X0051248Y0074671D02*
X0051248Y0072736D01*
X0054150Y0072736D01*
X0054150Y0071725D02*
X0052699Y0071725D01*
X0052215Y0071241D01*
X0052215Y0069790D01*
X0054150Y0069790D01*
X0053666Y0068778D02*
X0054150Y0068294D01*
X0054150Y0067327D01*
X0053666Y0066843D01*
X0051731Y0068778D01*
X0053666Y0068778D01*
X0051731Y0068778D02*
X0051248Y0068294D01*
X0051248Y0067327D01*
X0051731Y0066843D01*
X0053666Y0066843D01*
X0053666Y0065831D02*
X0054150Y0065348D01*
X0054150Y0064380D01*
X0053666Y0063897D01*
X0051731Y0065831D01*
X0053666Y0065831D01*
X0051731Y0065831D02*
X0051248Y0065348D01*
X0051248Y0064380D01*
X0051731Y0063897D01*
X0053666Y0063897D01*
X0054150Y0062885D02*
X0054150Y0060950D01*
X0054150Y0061917D02*
X0051248Y0061917D01*
X0052215Y0060950D01*
X0052699Y0072736D02*
X0052699Y0073704D01*
X0071347Y0055168D02*
X0071347Y0052699D01*
X0075050Y0052699D01*
X0074433Y0051485D02*
X0073198Y0051485D01*
X0072581Y0050868D01*
X0072581Y0049016D01*
X0076284Y0049016D01*
X0075050Y0049016D02*
X0075050Y0050868D01*
X0074433Y0051485D01*
X0073198Y0052699D02*
X0073198Y0053934D01*
X0072581Y0047802D02*
X0071964Y0047802D01*
X0071347Y0047185D01*
X0071347Y0045950D01*
X0071964Y0045333D01*
X0072581Y0045333D01*
X0073198Y0045950D01*
X0073198Y0047185D01*
X0073816Y0047802D01*
X0074433Y0047802D01*
X0075050Y0047185D01*
X0075050Y0045950D01*
X0074433Y0045333D01*
X0073816Y0045333D01*
X0073198Y0045950D01*
X0073198Y0047185D02*
X0072581Y0047802D01*
X0075050Y0044119D02*
X0075050Y0041650D01*
X0075050Y0042884D02*
X0071347Y0042884D01*
X0072581Y0041650D01*
X0081794Y0028652D02*
X0081310Y0028169D01*
X0081310Y0026234D01*
X0081794Y0025750D01*
X0082762Y0025750D01*
X0083245Y0026234D01*
X0084257Y0025750D02*
X0086192Y0025750D01*
X0085224Y0025750D02*
X0085224Y0028652D01*
X0084257Y0027685D01*
X0083245Y0028169D02*
X0082762Y0028652D01*
X0081794Y0028652D01*
X0087203Y0028652D02*
X0087203Y0027201D01*
X0088171Y0027685D01*
X0088655Y0027685D01*
X0089138Y0027201D01*
X0089138Y0026234D01*
X0088655Y0025750D01*
X0087687Y0025750D01*
X0087203Y0026234D01*
X0087203Y0028652D02*
X0089138Y0028652D01*
X0113448Y0029164D02*
X0116350Y0031099D01*
X0118048Y0031322D02*
X0118531Y0031806D01*
X0119015Y0031806D01*
X0119499Y0031322D01*
X0119499Y0029871D01*
X0119499Y0028859D02*
X0119499Y0026924D01*
X0119015Y0026924D02*
X0118048Y0027892D01*
X0119015Y0028859D01*
X0120950Y0028859D01*
X0120950Y0029871D02*
X0120950Y0031322D01*
X0120466Y0031806D01*
X0119983Y0031806D01*
X0119499Y0031322D01*
X0118048Y0031322D02*
X0118048Y0029871D01*
X0120950Y0029871D01*
X0120950Y0032817D02*
X0118048Y0032817D01*
X0116350Y0033078D02*
X0113448Y0033078D01*
X0113448Y0034045D02*
X0113448Y0032110D01*
X0113448Y0031099D02*
X0116350Y0029164D01*
X0119015Y0026924D02*
X0120950Y0026924D01*
X0120950Y0032817D02*
X0120950Y0034752D01*
X0120466Y0035764D02*
X0120950Y0036248D01*
X0120950Y0037215D01*
X0120466Y0037699D01*
X0119983Y0037699D01*
X0119499Y0037215D01*
X0119499Y0036248D01*
X0119015Y0035764D01*
X0118531Y0035764D01*
X0118048Y0036248D01*
X0118048Y0037215D01*
X0118531Y0037699D01*
X0118048Y0038710D02*
X0118048Y0040645D01*
X0118531Y0040645D01*
X0120466Y0038710D01*
X0120950Y0038710D01*
X0120950Y0041657D02*
X0118048Y0041657D01*
X0119015Y0042624D01*
X0118048Y0043592D01*
X0120950Y0043592D01*
X0120950Y0044603D02*
X0119015Y0046538D01*
X0118531Y0046538D01*
X0118048Y0046055D01*
X0118048Y0045087D01*
X0118531Y0044603D01*
X0120950Y0044603D02*
X0120950Y0046538D01*
X0116350Y0039938D02*
X0116350Y0038003D01*
X0113448Y0038003D01*
X0114415Y0036992D02*
X0113448Y0036024D01*
X0114415Y0035057D01*
X0116350Y0035057D01*
X0114899Y0035057D02*
X0114899Y0036992D01*
X0114415Y0036992D02*
X0116350Y0036992D01*
X0057598Y0045352D02*
X0055663Y0045352D01*
X0055663Y0042450D01*
X0054651Y0042450D02*
X0054651Y0044385D01*
X0055663Y0043901D02*
X0056630Y0043901D01*
X0054651Y0042450D02*
X0053200Y0042450D01*
X0052716Y0042934D01*
X0052716Y0044385D01*
X0051705Y0042450D02*
X0049770Y0042450D01*
X0050737Y0042450D02*
X0050737Y0045352D01*
X0049770Y0044385D01*
X0048780Y0042934D02*
X0048780Y0042450D01*
X0048297Y0042450D01*
X0048297Y0042934D01*
X0048780Y0042934D01*
X0047285Y0042934D02*
X0046801Y0042450D01*
X0045834Y0042450D01*
X0045350Y0042934D01*
X0047285Y0044869D01*
X0047285Y0042934D01*
X0045350Y0042934D02*
X0045350Y0044869D01*
X0045834Y0045352D01*
X0046801Y0045352D01*
X0047285Y0044869D01*
X0066875Y0098884D02*
X0066392Y0099368D01*
X0066392Y0100336D01*
X0066875Y0100819D01*
X0067359Y0100819D01*
X0069294Y0098884D01*
X0069294Y0100819D01*
X0069294Y0101831D02*
X0068810Y0101831D01*
X0068810Y0102315D01*
X0069294Y0102315D01*
X0069294Y0101831D01*
X0069294Y0103304D02*
X0067359Y0105239D01*
X0066875Y0105239D01*
X0066392Y0104755D01*
X0066392Y0103788D01*
X0066875Y0103304D01*
X0069294Y0103304D02*
X0069294Y0105239D01*
X0068810Y0106251D02*
X0069294Y0106734D01*
X0069294Y0108186D01*
X0067359Y0108186D01*
X0067843Y0109197D02*
X0067843Y0110165D01*
X0066392Y0111132D02*
X0066392Y0109197D01*
X0069294Y0109197D01*
X0068810Y0106251D02*
X0067359Y0106251D01*
X0061103Y0128050D02*
X0061103Y0130952D01*
X0063038Y0130952D01*
X0062071Y0129501D02*
X0061103Y0129501D01*
X0060092Y0129985D02*
X0060092Y0128050D01*
X0058641Y0128050D01*
X0058157Y0128534D01*
X0058157Y0129985D01*
X0057145Y0128050D02*
X0055210Y0128050D01*
X0056178Y0128050D02*
X0056178Y0130952D01*
X0055210Y0129985D01*
X0054221Y0128534D02*
X0053737Y0128534D01*
X0053737Y0128050D01*
X0054221Y0128050D01*
X0054221Y0128534D01*
X0052726Y0128534D02*
X0052726Y0130469D01*
X0050791Y0128534D01*
X0051274Y0128050D01*
X0052242Y0128050D01*
X0052726Y0128534D01*
X0052726Y0130469D02*
X0052242Y0130952D01*
X0051274Y0130952D01*
X0050791Y0130469D01*
X0050791Y0128534D01*
X0117548Y0121955D02*
X0117548Y0120503D01*
X0120450Y0120503D01*
X0119483Y0120503D02*
X0119483Y0121955D01*
X0118999Y0122438D01*
X0118031Y0122438D01*
X0117548Y0121955D01*
X0118031Y0119492D02*
X0117548Y0119008D01*
X0117548Y0118041D01*
X0118031Y0117557D01*
X0118515Y0117557D01*
X0118999Y0118041D01*
X0118999Y0119008D01*
X0119483Y0119492D01*
X0119966Y0119492D01*
X0120450Y0119008D01*
X0120450Y0118041D01*
X0119966Y0117557D01*
X0119966Y0116545D02*
X0120450Y0116062D01*
X0120450Y0115094D01*
X0119966Y0114610D01*
X0118031Y0114610D01*
X0117548Y0115094D01*
X0117548Y0116062D01*
X0118031Y0116545D01*
X0117548Y0113614D02*
X0117548Y0112646D01*
X0117548Y0113130D02*
X0120450Y0113130D01*
X0120450Y0112646D02*
X0120450Y0113614D01*
D11*
X0021300Y0027800D02*
X0018800Y0030300D01*
X0018800Y0035300D01*
X0021300Y0037800D01*
X0026300Y0037800D01*
X0028800Y0035300D01*
X0028800Y0030300D01*
X0026300Y0027800D01*
X0021300Y0027800D01*
X0028800Y0030300D02*
X0031300Y0027800D01*
X0036300Y0027800D01*
X0038800Y0030300D01*
X0038800Y0035300D01*
X0041300Y0037800D01*
X0046300Y0037800D01*
X0048800Y0035300D01*
X0048800Y0030300D01*
X0046300Y0027800D01*
X0041300Y0027800D01*
X0038800Y0030300D01*
X0038800Y0035300D02*
X0036300Y0037800D01*
X0031300Y0037800D01*
X0028800Y0035300D01*
X0048800Y0035300D02*
X0051300Y0037800D01*
X0056300Y0037800D01*
X0058800Y0035300D01*
X0058800Y0030300D01*
X0056300Y0027800D01*
X0051300Y0027800D01*
X0048800Y0030300D01*
X0058800Y0030300D02*
X0061300Y0027800D01*
X0066300Y0027800D01*
X0068800Y0030300D01*
X0068800Y0035300D01*
X0071300Y0037800D01*
X0076300Y0037800D01*
X0078800Y0035300D01*
X0078800Y0030300D01*
X0076300Y0027800D01*
X0071300Y0027800D01*
X0068800Y0030300D01*
X0068800Y0035300D02*
X0066300Y0037800D01*
X0061300Y0037800D01*
X0058800Y0035300D01*
X0071700Y0072400D02*
X0071702Y0072449D01*
X0071708Y0072497D01*
X0071718Y0072545D01*
X0071732Y0072592D01*
X0071749Y0072638D01*
X0071770Y0072682D01*
X0071795Y0072724D01*
X0071823Y0072764D01*
X0071855Y0072802D01*
X0071889Y0072837D01*
X0071926Y0072869D01*
X0071965Y0072898D01*
X0072007Y0072924D01*
X0072051Y0072946D01*
X0072096Y0072964D01*
X0072143Y0072979D01*
X0072190Y0072990D01*
X0072239Y0072997D01*
X0072288Y0073000D01*
X0072337Y0072999D01*
X0072385Y0072994D01*
X0072434Y0072985D01*
X0072481Y0072972D01*
X0072527Y0072955D01*
X0072571Y0072935D01*
X0072614Y0072911D01*
X0072655Y0072884D01*
X0072693Y0072853D01*
X0072729Y0072820D01*
X0072761Y0072784D01*
X0072791Y0072745D01*
X0072818Y0072704D01*
X0072841Y0072660D01*
X0072860Y0072615D01*
X0072876Y0072569D01*
X0072888Y0072522D01*
X0072896Y0072473D01*
X0072900Y0072424D01*
X0072900Y0072376D01*
X0072896Y0072327D01*
X0072888Y0072278D01*
X0072876Y0072231D01*
X0072860Y0072185D01*
X0072841Y0072140D01*
X0072818Y0072096D01*
X0072791Y0072055D01*
X0072761Y0072016D01*
X0072729Y0071980D01*
X0072693Y0071947D01*
X0072655Y0071916D01*
X0072614Y0071889D01*
X0072571Y0071865D01*
X0072527Y0071845D01*
X0072481Y0071828D01*
X0072434Y0071815D01*
X0072385Y0071806D01*
X0072337Y0071801D01*
X0072288Y0071800D01*
X0072239Y0071803D01*
X0072190Y0071810D01*
X0072143Y0071821D01*
X0072096Y0071836D01*
X0072051Y0071854D01*
X0072007Y0071876D01*
X0071965Y0071902D01*
X0071926Y0071931D01*
X0071889Y0071963D01*
X0071855Y0071998D01*
X0071823Y0072036D01*
X0071795Y0072076D01*
X0071770Y0072118D01*
X0071749Y0072162D01*
X0071732Y0072208D01*
X0071718Y0072255D01*
X0071708Y0072303D01*
X0071702Y0072351D01*
X0071700Y0072400D01*
X0073001Y0074398D02*
X0074398Y0073001D01*
X0100599Y0073001D01*
X0100599Y0100599D01*
X0073001Y0100599D01*
X0073001Y0074398D01*
X0064024Y0096957D02*
X0054576Y0096957D01*
X0054576Y0102863D01*
X0054576Y0110737D02*
X0054576Y0115068D01*
X0056150Y0116643D01*
X0062450Y0116643D01*
X0064024Y0115068D01*
X0064024Y0110737D01*
X0064024Y0102863D02*
X0064024Y0096957D01*
X0086800Y0111800D02*
X0086800Y0126800D01*
X0089300Y0129300D01*
X0094300Y0129300D01*
X0096800Y0126800D01*
X0096800Y0111800D01*
X0094300Y0109300D01*
X0089300Y0109300D01*
X0086800Y0111800D01*
X0096800Y0111800D02*
X0099300Y0109300D01*
X0104300Y0109300D01*
X0106800Y0111800D01*
X0106800Y0126800D01*
X0104300Y0129300D01*
X0099300Y0129300D01*
X0096800Y0126800D01*
X0106800Y0126800D02*
X0109300Y0129300D01*
X0114300Y0129300D01*
X0116800Y0126800D01*
X0116800Y0111800D01*
X0114300Y0109300D01*
X0109300Y0109300D01*
X0106800Y0111800D01*
X0109300Y0130619D02*
X0114300Y0130619D01*
X0126800Y0124300D02*
X0126800Y0119300D01*
X0129300Y0116800D01*
X0126800Y0114300D01*
X0126800Y0109300D01*
X0129300Y0106800D01*
X0126800Y0104300D01*
X0126800Y0099300D01*
X0129300Y0096800D01*
X0126800Y0094300D01*
X0126800Y0089300D01*
X0129300Y0086800D01*
X0126800Y0084300D01*
X0126800Y0079300D01*
X0129300Y0076800D01*
X0126800Y0074300D01*
X0126800Y0069300D01*
X0129300Y0066800D01*
X0126800Y0064300D01*
X0126800Y0059300D01*
X0129300Y0056800D01*
X0126800Y0054300D01*
X0126800Y0049300D01*
X0129300Y0046800D01*
X0134300Y0046800D01*
X0136800Y0049300D01*
X0136800Y0054300D01*
X0134300Y0056800D01*
X0136800Y0059300D01*
X0136800Y0064300D01*
X0134300Y0066800D01*
X0136800Y0069300D01*
X0136800Y0074300D01*
X0134300Y0076800D01*
X0136800Y0079300D01*
X0136800Y0084300D01*
X0134300Y0086800D01*
X0136800Y0089300D01*
X0136800Y0094300D01*
X0134300Y0096800D01*
X0136800Y0099300D01*
X0136800Y0104300D01*
X0134300Y0106800D01*
X0136800Y0109300D01*
X0136800Y0114300D01*
X0134300Y0116800D01*
X0136800Y0119300D01*
X0136800Y0124300D01*
X0134300Y0126800D01*
X0129300Y0126800D01*
X0126800Y0124300D01*
D12*
X0110999Y0098476D02*
X0110499Y0098476D01*
X0110249Y0098226D01*
X0110249Y0097476D01*
X0111750Y0097476D01*
X0111250Y0097476D02*
X0111250Y0098226D01*
X0110999Y0098476D01*
X0110249Y0097003D02*
X0110249Y0096002D01*
X0111750Y0096002D01*
X0111750Y0095530D02*
X0111250Y0095029D01*
X0111750Y0094779D02*
X0111500Y0094529D01*
X0110499Y0094529D01*
X0110249Y0094779D01*
X0110249Y0095280D01*
X0110499Y0095530D01*
X0111500Y0095530D01*
X0111750Y0095280D01*
X0111750Y0094779D01*
X0111750Y0093556D02*
X0110249Y0093556D01*
X0110249Y0093056D02*
X0110249Y0094057D01*
X0110999Y0096002D02*
X0110999Y0096503D01*
X0112000Y0092583D02*
X0112000Y0091583D01*
X0111250Y0090860D02*
X0111250Y0090109D01*
X0111250Y0089637D02*
X0111500Y0089637D01*
X0111750Y0089387D01*
X0111750Y0088886D01*
X0111500Y0088636D01*
X0111250Y0088636D01*
X0110999Y0088886D01*
X0110999Y0089387D01*
X0111250Y0089637D01*
X0110999Y0089387D02*
X0110749Y0089637D01*
X0110499Y0089637D01*
X0110249Y0089387D01*
X0110249Y0088886D01*
X0110499Y0088636D01*
X0110749Y0088636D01*
X0110999Y0088886D01*
X0110749Y0088164D02*
X0110499Y0088164D01*
X0110249Y0087913D01*
X0110249Y0087413D01*
X0110499Y0087163D01*
X0110499Y0086690D02*
X0110749Y0086690D01*
X0110999Y0086440D01*
X0111250Y0086690D01*
X0111500Y0086690D01*
X0111750Y0086440D01*
X0111750Y0085940D01*
X0111500Y0085690D01*
X0111750Y0085217D02*
X0110749Y0085217D01*
X0110249Y0084717D01*
X0110749Y0084216D01*
X0111750Y0084216D01*
X0111500Y0083744D02*
X0110999Y0083744D01*
X0110999Y0083243D01*
X0110499Y0082743D02*
X0111500Y0082743D01*
X0111750Y0082993D01*
X0111750Y0083494D01*
X0111500Y0083744D01*
X0110999Y0084216D02*
X0110999Y0085217D01*
X0110499Y0085690D02*
X0110249Y0085940D01*
X0110249Y0086440D01*
X0110499Y0086690D01*
X0110999Y0086440D02*
X0110999Y0086190D01*
X0111750Y0087163D02*
X0110749Y0088164D01*
X0111750Y0088164D02*
X0111750Y0087163D01*
X0111750Y0090109D02*
X0110249Y0090109D01*
X0110249Y0090860D01*
X0110499Y0091110D01*
X0110999Y0091110D01*
X0111250Y0090860D01*
X0110499Y0083744D02*
X0110249Y0083494D01*
X0110249Y0082993D01*
X0110499Y0082743D01*
X0110249Y0082271D02*
X0110249Y0081270D01*
X0111750Y0081270D01*
X0111750Y0082271D01*
X0110999Y0081770D02*
X0110999Y0081270D01*
X0110249Y0080797D02*
X0111750Y0080797D01*
X0111750Y0079797D02*
X0110249Y0079797D01*
X0110749Y0080297D01*
X0110249Y0080797D01*
X0110249Y0079324D02*
X0110249Y0078323D01*
X0110249Y0078824D02*
X0111750Y0078824D01*
X0111750Y0077851D02*
X0110749Y0077851D01*
X0110249Y0077350D01*
X0110749Y0076850D01*
X0111750Y0076850D01*
X0110999Y0076850D02*
X0110999Y0077851D01*
X0108249Y0068271D02*
X0108249Y0067270D01*
X0109750Y0067270D01*
X0109500Y0066797D02*
X0108999Y0066797D01*
X0108749Y0066547D01*
X0108749Y0065797D01*
X0110250Y0065797D01*
X0109750Y0065797D02*
X0109750Y0066547D01*
X0109500Y0066797D01*
X0108999Y0067270D02*
X0108999Y0067770D01*
X0108749Y0065324D02*
X0108999Y0065074D01*
X0108999Y0064573D01*
X0108749Y0064323D01*
X0108499Y0064323D01*
X0108249Y0064573D01*
X0108249Y0065074D01*
X0108499Y0065324D01*
X0108749Y0065324D01*
X0108999Y0065074D02*
X0109250Y0065324D01*
X0109500Y0065324D01*
X0109750Y0065074D01*
X0109750Y0064573D01*
X0109500Y0064323D01*
X0109250Y0064323D01*
X0108999Y0064573D01*
X0109750Y0063851D02*
X0109750Y0062850D01*
X0109750Y0063350D02*
X0108249Y0063350D01*
X0108749Y0062850D01*
X0102250Y0063600D02*
X0102250Y0064101D01*
X0102000Y0064351D01*
X0102250Y0064823D02*
X0102250Y0065824D01*
X0102250Y0066297D02*
X0102250Y0067297D01*
X0102250Y0066797D02*
X0100749Y0066797D01*
X0101249Y0066297D01*
X0100749Y0065324D02*
X0102250Y0065324D01*
X0101249Y0064823D02*
X0100749Y0065324D01*
X0100999Y0064351D02*
X0100749Y0064101D01*
X0100749Y0063600D01*
X0100999Y0063350D01*
X0102000Y0063350D01*
X0102250Y0063600D01*
X0085700Y0044778D02*
X0085950Y0044527D01*
X0085950Y0044027D01*
X0085700Y0043777D01*
X0084699Y0044778D01*
X0085700Y0044778D01*
X0084699Y0044778D02*
X0084449Y0044527D01*
X0084449Y0044027D01*
X0084699Y0043777D01*
X0085700Y0043777D01*
X0085950Y0043304D02*
X0085950Y0042303D01*
X0085950Y0042804D02*
X0084449Y0042804D01*
X0084949Y0042303D01*
X0084699Y0041831D02*
X0084449Y0041581D01*
X0084449Y0041080D01*
X0084699Y0040830D01*
X0085700Y0040830D01*
X0085950Y0041080D01*
X0085950Y0041581D01*
X0085700Y0041831D01*
X0066500Y0074350D02*
X0065249Y0074350D01*
X0065249Y0075351D02*
X0066500Y0075351D01*
X0066750Y0075101D01*
X0066750Y0074600D01*
X0066500Y0074350D01*
X0066500Y0075823D02*
X0066750Y0076073D01*
X0066750Y0076574D01*
X0066500Y0076824D01*
X0066250Y0076824D01*
X0065999Y0076574D01*
X0065999Y0076324D01*
X0065999Y0076574D02*
X0065749Y0076824D01*
X0065499Y0076824D01*
X0065249Y0076574D01*
X0065249Y0076073D01*
X0065499Y0075823D01*
X0051527Y0086350D02*
X0051527Y0087851D01*
X0050777Y0087101D01*
X0051778Y0087101D01*
X0050304Y0087101D02*
X0050054Y0086850D01*
X0049303Y0086850D01*
X0049303Y0086350D02*
X0049303Y0087851D01*
X0050054Y0087851D01*
X0050304Y0087601D01*
X0050304Y0087101D01*
X0049804Y0086850D02*
X0050304Y0086350D01*
X0048750Y0076878D02*
X0048750Y0075877D01*
X0047749Y0076878D01*
X0047499Y0076878D01*
X0047249Y0076627D01*
X0047249Y0076127D01*
X0047499Y0075877D01*
X0047499Y0075404D02*
X0047999Y0075404D01*
X0048250Y0075154D01*
X0048250Y0074403D01*
X0048750Y0074403D02*
X0047249Y0074403D01*
X0047249Y0075154D01*
X0047499Y0075404D01*
X0048250Y0074904D02*
X0048750Y0075404D01*
X0035824Y0076101D02*
X0034823Y0075100D01*
X0034823Y0074850D01*
X0034351Y0075100D02*
X0034101Y0074850D01*
X0033600Y0074850D01*
X0033350Y0075100D01*
X0033350Y0076101D01*
X0033600Y0076351D01*
X0034101Y0076351D01*
X0034351Y0076101D01*
X0034823Y0076351D02*
X0035824Y0076351D01*
X0035824Y0076101D01*
X0040499Y0063724D02*
X0040749Y0063724D01*
X0040999Y0063474D01*
X0040999Y0062973D01*
X0040749Y0062723D01*
X0040499Y0062723D01*
X0040249Y0062973D01*
X0040249Y0063474D01*
X0040499Y0063724D01*
X0040999Y0063474D02*
X0041250Y0063724D01*
X0041500Y0063724D01*
X0041750Y0063474D01*
X0041750Y0062973D01*
X0041500Y0062723D01*
X0041250Y0062723D01*
X0040999Y0062973D01*
X0040499Y0062251D02*
X0040249Y0062001D01*
X0040249Y0061500D01*
X0040499Y0061250D01*
X0041500Y0061250D01*
X0041750Y0061500D01*
X0041750Y0062001D01*
X0041500Y0062251D01*
X0043600Y0053851D02*
X0043350Y0053601D01*
X0043350Y0052600D01*
X0043600Y0052350D01*
X0044101Y0052350D01*
X0044351Y0052600D01*
X0044823Y0052350D02*
X0045824Y0052350D01*
X0046297Y0052350D02*
X0047297Y0053351D01*
X0047297Y0053601D01*
X0047047Y0053851D01*
X0046547Y0053851D01*
X0046297Y0053601D01*
X0045324Y0053851D02*
X0045324Y0052350D01*
X0046297Y0052350D02*
X0047297Y0052350D01*
X0045324Y0053851D02*
X0044823Y0053351D01*
X0044351Y0053601D02*
X0044101Y0053851D01*
X0043600Y0053851D01*
X0052562Y0096850D02*
X0053563Y0096850D01*
X0053813Y0097100D01*
X0053813Y0097601D01*
X0053563Y0097851D01*
X0053813Y0098323D02*
X0052812Y0099324D01*
X0052562Y0099324D01*
X0052312Y0099074D01*
X0052312Y0098573D01*
X0052562Y0098323D01*
X0052562Y0097851D02*
X0052312Y0097601D01*
X0052312Y0097100D01*
X0052562Y0096850D01*
X0053813Y0098323D02*
X0053813Y0099324D01*
X0040824Y0104100D02*
X0040574Y0103850D01*
X0040073Y0103850D01*
X0039823Y0104100D01*
X0039823Y0104601D01*
X0040574Y0104601D01*
X0040824Y0104350D01*
X0040824Y0104100D01*
X0040324Y0105101D02*
X0039823Y0104601D01*
X0039351Y0105101D02*
X0039101Y0105351D01*
X0038600Y0105351D01*
X0038350Y0105101D01*
X0038350Y0104100D01*
X0038600Y0103850D01*
X0039101Y0103850D01*
X0039351Y0104100D01*
X0040324Y0105101D02*
X0040824Y0105351D01*
X0068350Y0128100D02*
X0068600Y0127850D01*
X0069101Y0127850D01*
X0069351Y0128100D01*
X0069823Y0128601D02*
X0070824Y0128601D01*
X0070574Y0129351D02*
X0069823Y0128601D01*
X0069351Y0129101D02*
X0069101Y0129351D01*
X0068600Y0129351D01*
X0068350Y0129101D01*
X0068350Y0128100D01*
X0070574Y0127850D02*
X0070574Y0129351D01*
D13*
X0063300Y0108300D02*
X0055300Y0108300D01*
X0025489Y0092272D02*
X0005410Y0092272D01*
X0005410Y0061328D01*
X0025489Y0061328D01*
X0025489Y0092272D01*
X0006591Y0096485D02*
X0006591Y0057115D01*
X0088620Y0057921D02*
X0088620Y0044279D01*
X0088622Y0044211D01*
X0088627Y0044144D01*
X0088636Y0044077D01*
X0088649Y0044010D01*
X0088666Y0043945D01*
X0088685Y0043880D01*
X0088709Y0043816D01*
X0088736Y0043754D01*
X0088766Y0043693D01*
X0088799Y0043635D01*
X0088835Y0043578D01*
X0088875Y0043523D01*
X0088917Y0043470D01*
X0088963Y0043419D01*
X0089010Y0043372D01*
X0089061Y0043326D01*
X0089114Y0043284D01*
X0089169Y0043244D01*
X0089226Y0043208D01*
X0089284Y0043175D01*
X0089345Y0043145D01*
X0089407Y0043118D01*
X0089471Y0043094D01*
X0089536Y0043075D01*
X0089601Y0043058D01*
X0089668Y0043045D01*
X0089735Y0043036D01*
X0089802Y0043031D01*
X0089870Y0043029D01*
X0114930Y0043029D01*
X0114998Y0043031D01*
X0115065Y0043036D01*
X0115132Y0043045D01*
X0115199Y0043058D01*
X0115264Y0043075D01*
X0115329Y0043094D01*
X0115393Y0043118D01*
X0115455Y0043145D01*
X0115516Y0043175D01*
X0115574Y0043208D01*
X0115631Y0043244D01*
X0115686Y0043284D01*
X0115739Y0043326D01*
X0115790Y0043372D01*
X0115837Y0043419D01*
X0115883Y0043470D01*
X0115925Y0043523D01*
X0115965Y0043578D01*
X0116001Y0043635D01*
X0116034Y0043693D01*
X0116064Y0043754D01*
X0116091Y0043816D01*
X0116115Y0043880D01*
X0116134Y0043945D01*
X0116151Y0044010D01*
X0116164Y0044077D01*
X0116173Y0044144D01*
X0116178Y0044211D01*
X0116180Y0044279D01*
X0116180Y0057921D01*
X0116178Y0057989D01*
X0116173Y0058056D01*
X0116164Y0058123D01*
X0116151Y0058190D01*
X0116134Y0058255D01*
X0116115Y0058320D01*
X0116091Y0058384D01*
X0116064Y0058446D01*
X0116034Y0058507D01*
X0116001Y0058565D01*
X0115965Y0058622D01*
X0115925Y0058677D01*
X0115883Y0058730D01*
X0115837Y0058781D01*
X0115790Y0058828D01*
X0115739Y0058874D01*
X0115686Y0058916D01*
X0115631Y0058956D01*
X0115574Y0058992D01*
X0115516Y0059025D01*
X0115455Y0059055D01*
X0115393Y0059082D01*
X0115329Y0059106D01*
X0115264Y0059125D01*
X0115199Y0059142D01*
X0115132Y0059155D01*
X0115065Y0059164D01*
X0114998Y0059169D01*
X0114930Y0059171D01*
X0089870Y0059171D01*
X0089802Y0059169D01*
X0089735Y0059164D01*
X0089668Y0059155D01*
X0089601Y0059142D01*
X0089536Y0059125D01*
X0089471Y0059106D01*
X0089407Y0059082D01*
X0089345Y0059055D01*
X0089284Y0059025D01*
X0089226Y0058992D01*
X0089169Y0058956D01*
X0089114Y0058916D01*
X0089061Y0058874D01*
X0089010Y0058828D01*
X0088963Y0058781D01*
X0088917Y0058730D01*
X0088875Y0058677D01*
X0088835Y0058622D01*
X0088799Y0058565D01*
X0088766Y0058507D01*
X0088736Y0058446D01*
X0088709Y0058384D01*
X0088685Y0058320D01*
X0088666Y0058255D01*
X0088649Y0058190D01*
X0088636Y0058123D01*
X0088627Y0058056D01*
X0088622Y0057989D01*
X0088620Y0057921D01*
D14*
X0080320Y0047300D02*
X0080080Y0047300D01*
X0105180Y0066800D02*
X0105420Y0066800D01*
X0046920Y0061800D02*
X0046680Y0061800D01*
X0036800Y0071680D02*
X0036800Y0071920D01*
X0046800Y0049420D02*
X0046800Y0049180D01*
X0041800Y0100680D02*
X0041800Y0100920D01*
X0064180Y0123200D02*
X0064420Y0123200D01*
D15*
X0054300Y0091800D03*
X0040900Y0079900D03*
D16*
X0123900Y0128667D02*
X0124267Y0128300D01*
X0124634Y0128300D01*
X0125001Y0128667D01*
X0125001Y0130502D01*
X0124634Y0130502D02*
X0125368Y0130502D01*
X0126110Y0129768D02*
X0126110Y0128300D01*
X0126110Y0129401D02*
X0127578Y0129401D01*
X0127578Y0129768D02*
X0127578Y0128300D01*
X0128320Y0128667D02*
X0128687Y0128300D01*
X0129421Y0128300D01*
X0129788Y0128667D01*
X0130530Y0128667D02*
X0130897Y0128300D01*
X0131631Y0128300D01*
X0131998Y0128667D01*
X0132740Y0128300D02*
X0132740Y0130502D01*
X0134207Y0130502D01*
X0134949Y0130502D02*
X0134949Y0128300D01*
X0136417Y0128300D01*
X0134207Y0128300D02*
X0132740Y0128300D01*
X0132740Y0129401D02*
X0133473Y0129401D01*
X0131998Y0130135D02*
X0131631Y0130502D01*
X0130897Y0130502D01*
X0130530Y0130135D01*
X0130530Y0128667D01*
X0129788Y0130135D02*
X0129421Y0130502D01*
X0128687Y0130502D01*
X0128320Y0130135D01*
X0128320Y0128667D01*
X0127578Y0129768D02*
X0126844Y0130502D01*
X0126110Y0129768D01*
D17*
X0088400Y0034600D02*
X0088403Y0034845D01*
X0088412Y0035091D01*
X0088427Y0035336D01*
X0088448Y0035580D01*
X0088475Y0035824D01*
X0088508Y0036067D01*
X0088547Y0036310D01*
X0088592Y0036551D01*
X0088643Y0036791D01*
X0088700Y0037030D01*
X0088762Y0037267D01*
X0088831Y0037503D01*
X0088905Y0037737D01*
X0088985Y0037969D01*
X0089070Y0038199D01*
X0089161Y0038427D01*
X0089258Y0038652D01*
X0089360Y0038876D01*
X0089468Y0039096D01*
X0089581Y0039314D01*
X0089699Y0039529D01*
X0089823Y0039741D01*
X0089951Y0039950D01*
X0090085Y0040156D01*
X0090224Y0040358D01*
X0090368Y0040557D01*
X0090517Y0040752D01*
X0090670Y0040944D01*
X0090828Y0041132D01*
X0090990Y0041316D01*
X0091158Y0041495D01*
X0091329Y0041671D01*
X0091505Y0041842D01*
X0091684Y0042010D01*
X0091868Y0042172D01*
X0092056Y0042330D01*
X0092248Y0042483D01*
X0092443Y0042632D01*
X0092642Y0042776D01*
X0092844Y0042915D01*
X0093050Y0043049D01*
X0093259Y0043177D01*
X0093471Y0043301D01*
X0093686Y0043419D01*
X0093904Y0043532D01*
X0094124Y0043640D01*
X0094348Y0043742D01*
X0094573Y0043839D01*
X0094801Y0043930D01*
X0095031Y0044015D01*
X0095263Y0044095D01*
X0095497Y0044169D01*
X0095733Y0044238D01*
X0095970Y0044300D01*
X0096209Y0044357D01*
X0096449Y0044408D01*
X0096690Y0044453D01*
X0096933Y0044492D01*
X0097176Y0044525D01*
X0097420Y0044552D01*
X0097664Y0044573D01*
X0097909Y0044588D01*
X0098155Y0044597D01*
X0098400Y0044600D01*
X0098645Y0044597D01*
X0098891Y0044588D01*
X0099136Y0044573D01*
X0099380Y0044552D01*
X0099624Y0044525D01*
X0099867Y0044492D01*
X0100110Y0044453D01*
X0100351Y0044408D01*
X0100591Y0044357D01*
X0100830Y0044300D01*
X0101067Y0044238D01*
X0101303Y0044169D01*
X0101537Y0044095D01*
X0101769Y0044015D01*
X0101999Y0043930D01*
X0102227Y0043839D01*
X0102452Y0043742D01*
X0102676Y0043640D01*
X0102896Y0043532D01*
X0103114Y0043419D01*
X0103329Y0043301D01*
X0103541Y0043177D01*
X0103750Y0043049D01*
X0103956Y0042915D01*
X0104158Y0042776D01*
X0104357Y0042632D01*
X0104552Y0042483D01*
X0104744Y0042330D01*
X0104932Y0042172D01*
X0105116Y0042010D01*
X0105295Y0041842D01*
X0105471Y0041671D01*
X0105642Y0041495D01*
X0105810Y0041316D01*
X0105972Y0041132D01*
X0106130Y0040944D01*
X0106283Y0040752D01*
X0106432Y0040557D01*
X0106576Y0040358D01*
X0106715Y0040156D01*
X0106849Y0039950D01*
X0106977Y0039741D01*
X0107101Y0039529D01*
X0107219Y0039314D01*
X0107332Y0039096D01*
X0107440Y0038876D01*
X0107542Y0038652D01*
X0107639Y0038427D01*
X0107730Y0038199D01*
X0107815Y0037969D01*
X0107895Y0037737D01*
X0107969Y0037503D01*
X0108038Y0037267D01*
X0108100Y0037030D01*
X0108157Y0036791D01*
X0108208Y0036551D01*
X0108253Y0036310D01*
X0108292Y0036067D01*
X0108325Y0035824D01*
X0108352Y0035580D01*
X0108373Y0035336D01*
X0108388Y0035091D01*
X0108397Y0034845D01*
X0108400Y0034600D01*
X0108397Y0034355D01*
X0108388Y0034109D01*
X0108373Y0033864D01*
X0108352Y0033620D01*
X0108325Y0033376D01*
X0108292Y0033133D01*
X0108253Y0032890D01*
X0108208Y0032649D01*
X0108157Y0032409D01*
X0108100Y0032170D01*
X0108038Y0031933D01*
X0107969Y0031697D01*
X0107895Y0031463D01*
X0107815Y0031231D01*
X0107730Y0031001D01*
X0107639Y0030773D01*
X0107542Y0030548D01*
X0107440Y0030324D01*
X0107332Y0030104D01*
X0107219Y0029886D01*
X0107101Y0029671D01*
X0106977Y0029459D01*
X0106849Y0029250D01*
X0106715Y0029044D01*
X0106576Y0028842D01*
X0106432Y0028643D01*
X0106283Y0028448D01*
X0106130Y0028256D01*
X0105972Y0028068D01*
X0105810Y0027884D01*
X0105642Y0027705D01*
X0105471Y0027529D01*
X0105295Y0027358D01*
X0105116Y0027190D01*
X0104932Y0027028D01*
X0104744Y0026870D01*
X0104552Y0026717D01*
X0104357Y0026568D01*
X0104158Y0026424D01*
X0103956Y0026285D01*
X0103750Y0026151D01*
X0103541Y0026023D01*
X0103329Y0025899D01*
X0103114Y0025781D01*
X0102896Y0025668D01*
X0102676Y0025560D01*
X0102452Y0025458D01*
X0102227Y0025361D01*
X0101999Y0025270D01*
X0101769Y0025185D01*
X0101537Y0025105D01*
X0101303Y0025031D01*
X0101067Y0024962D01*
X0100830Y0024900D01*
X0100591Y0024843D01*
X0100351Y0024792D01*
X0100110Y0024747D01*
X0099867Y0024708D01*
X0099624Y0024675D01*
X0099380Y0024648D01*
X0099136Y0024627D01*
X0098891Y0024612D01*
X0098645Y0024603D01*
X0098400Y0024600D01*
X0098155Y0024603D01*
X0097909Y0024612D01*
X0097664Y0024627D01*
X0097420Y0024648D01*
X0097176Y0024675D01*
X0096933Y0024708D01*
X0096690Y0024747D01*
X0096449Y0024792D01*
X0096209Y0024843D01*
X0095970Y0024900D01*
X0095733Y0024962D01*
X0095497Y0025031D01*
X0095263Y0025105D01*
X0095031Y0025185D01*
X0094801Y0025270D01*
X0094573Y0025361D01*
X0094348Y0025458D01*
X0094124Y0025560D01*
X0093904Y0025668D01*
X0093686Y0025781D01*
X0093471Y0025899D01*
X0093259Y0026023D01*
X0093050Y0026151D01*
X0092844Y0026285D01*
X0092642Y0026424D01*
X0092443Y0026568D01*
X0092248Y0026717D01*
X0092056Y0026870D01*
X0091868Y0027028D01*
X0091684Y0027190D01*
X0091505Y0027358D01*
X0091329Y0027529D01*
X0091158Y0027705D01*
X0090990Y0027884D01*
X0090828Y0028068D01*
X0090670Y0028256D01*
X0090517Y0028448D01*
X0090368Y0028643D01*
X0090224Y0028842D01*
X0090085Y0029044D01*
X0089951Y0029250D01*
X0089823Y0029459D01*
X0089699Y0029671D01*
X0089581Y0029886D01*
X0089468Y0030104D01*
X0089360Y0030324D01*
X0089258Y0030548D01*
X0089161Y0030773D01*
X0089070Y0031001D01*
X0088985Y0031231D01*
X0088905Y0031463D01*
X0088831Y0031697D01*
X0088762Y0031933D01*
X0088700Y0032170D01*
X0088643Y0032409D01*
X0088592Y0032649D01*
X0088547Y0032890D01*
X0088508Y0033133D01*
X0088475Y0033376D01*
X0088448Y0033620D01*
X0088427Y0033864D01*
X0088412Y0034109D01*
X0088403Y0034355D01*
X0088400Y0034600D01*
X0101400Y0027600D02*
X0103400Y0027600D01*
X0102400Y0028600D02*
X0102400Y0026600D01*
M02*
