%
M48
M72
T01C0.0130
T02C0.0197
T03C0.0236
T04C0.0276
T05C0.0315
T06C0.0320
T07C0.0354
T08C0.0400
T09C0.0472
T10C0.1220
%
T01
X6500Y8560
X10280Y10840
X10820Y10660
T02
X11330Y10030
X11030Y9030
X11430Y8630
X11030Y8280
X11830Y8280
X12530Y7880
X11830Y9030
X9780Y8680
X9780Y8230
X9230Y7630
X8480Y7630
X7750Y6390
X6830Y6030
X6720Y6990
X5600Y7760
X4930Y7990
X5630Y8730
X6380Y9330
X7680Y8830
X7930Y9480
X8480Y9630
X9630Y9130
X9830Y9730
X9680Y10930
X7970Y11350
X4430Y12480
X4430Y13180
X3180Y13180
X3180Y12280
X3490Y11370
X3930Y9430
X3170Y8020
X3150Y6320
X3150Y5910
X4180Y5860
X4240Y5390
X3680Y4680
X4110Y4470
X5210Y6200
X6220Y5050
X6910Y4170
T03
X9080Y6270
X10180Y5680
X11880Y6830
X12320Y6830
X12320Y6380
X11880Y7530
T04
X11830Y10280
X12380Y10830
X12530Y10330
T05
X6945Y12055
T06
X7950Y11830
X7950Y12630
X3570Y12700
X3570Y11900
X9440Y3460
X10240Y3460
T07
X5840Y12030
T08
X2380Y3330
X3380Y3230
X4380Y3330
X5380Y3230
X6380Y3330
X7380Y3230
X13130Y5180
X13230Y6180
X13130Y7180
X13230Y8180
X13130Y9180
X13230Y10180
X13130Y11180
X13230Y12180
X11180Y12430
X10180Y12430
X10180Y11430
X11180Y11430
X9180Y11430
X9180Y12430
T09
X1230Y8979
X1230Y6381
T10
X2180Y4680
X2180Y12180
X12680Y3680
M30
